<svg xmlns="http://www.w3.org/2000/svg" viewBox="0 0 22 25"><title>downloadvideo</title><path d="M18.2,7h-.4V5A7.6,7.6,0,0,0,9.9.5C6,1.1,4.4,4.8,4.3,5V7H3.8A2.8,2.8,0,0,0,1,9.8v12a2.7,2.7,0,0,0,2.8,2.7H18.2A2.7,2.7,0,0,0,21,21.8V9.8A2.8,2.8,0,0,0,18.2,7ZM5.8,5.4A5.9,5.9,0,0,1,10.1,2a6.3,6.3,0,0,1,6.2,3.4V7H5.8ZM19.5,21.8A1.2,1.2,0,0,1,18.2,23H3.8a1.2,1.2,0,0,1-1.3-1.2V9.8A1.3,1.3,0,0,1,3.8,8.5H18.2a1.3,1.3,0,0,1,1.3,1.3Z"/><path d="M11,12.3a2.7,2.7,0,0,0-3,2.5,2.4,2.4,0,0,0,2,2.3v3.2h2V17.1a2.4,2.4,0,0,0,2-2.3A2.7,2.7,0,0,0,11,12.3Z"/></svg>