<svg xmlns="http://www.w3.org/2000/svg" xmlns:xlink="http://www.w3.org/1999/xlink" viewBox="0 0 254 269"><defs><style>.a{fill:url(#a);}.b{fill:url(#b);}.c{fill:url(#c);}.d{fill:url(#d);}.e{fill:url(#e);}.f{fill:url(#f);}.g{fill:url(#g);}.h{fill:url(#h);}.i{fill:url(#i);}</style><linearGradient id="a" x1="69.55" y1="262.05" x2="188.91" y2="247.8" gradientUnits="userSpaceOnUse"><stop offset="0" stop-color="#6b6b6b"/><stop offset="0.29" stop-color="#6d6d6d"/><stop offset="0.32" stop-color="#dcdcdc"/><stop offset="0.35" stop-color="#b0b0b0"/><stop offset="0.7" stop-color="#adadad"/><stop offset="0.99" stop-color="#a3a3a3"/></linearGradient><linearGradient id="b" x1="101.61" y1="277.75" x2="171.35" y2="206.49" gradientUnits="userSpaceOnUse"><stop offset="0" stop-color="#898989"/><stop offset="0.23" stop-color="#d5d5d5"/><stop offset="0.49" stop-color="#d1d1d1"/><stop offset="0.66" stop-color="#8c8c8c"/><stop offset="1" stop-color="#888"/></linearGradient><linearGradient id="c" x1="69.73" y1="257.6" x2="189.17" y2="243.06" gradientUnits="userSpaceOnUse"><stop offset="0" stop-color="#898989"/><stop offset="0.35" stop-color="#d9d9d9"/><stop offset="0.49" stop-color="#d8d8d8"/><stop offset="0.82" stop-color="#8c8c8c"/></linearGradient><linearGradient id="d" x1="104.2" y1="257.88" x2="104.03" y2="215.22" gradientUnits="userSpaceOnUse"><stop offset="0.06" stop-color="#dbdbdb"/><stop offset="0.32" stop-color="#bababa"/><stop offset="0.82" stop-color="#838383"/></linearGradient><linearGradient id="e" x1="130.45" y1="258.79" x2="123.08" y2="200.38" gradientUnits="userSpaceOnUse"><stop offset="0.06" stop-color="#dbdbdb"/><stop offset="0.47" stop-color="#bababa"/><stop offset="0.64" stop-color="#838383"/></linearGradient><linearGradient id="f" x1="109.84" y1="259.8" x2="107.38" y2="200.98" gradientUnits="userSpaceOnUse"><stop offset="0.27" stop-color="#e2e2e2"/><stop offset="0.82" stop-color="#bbb"/></linearGradient><linearGradient id="g" x1="0.55" y1="120.87" x2="274.68" y2="120.87" gradientUnits="userSpaceOnUse"><stop offset="0" stop-color="#636363"/><stop offset="0.03" stop-color="#b0b1b5"/><stop offset="0.49" stop-color="#727272"/><stop offset="0.98" stop-color="#777b7c"/></linearGradient><linearGradient id="h" x1="4.14" y1="123.85" x2="253.49" y2="119" gradientUnits="userSpaceOnUse"><stop offset="0.01" stop-color="#dbdbdb"/><stop offset="0.03" stop-color="#b0b1b5"/><stop offset="0.56" stop-color="#b7b7b7"/><stop offset="0.96" stop-color="#aeaeae"/></linearGradient><linearGradient id="i" x1="36.27" y1="171.76" x2="284.66" width="5" height="50.18" y2="19.98" gradientUnits="userSpaceOnUse"><stop offset="0.03" stop-color="#eff6fc"/><stop offset="0.17" stop-color="#e4f2fd"/><stop offset="0.33" stop-color="#ebf6fc"/><stop offset="0.54" stop-color="#eff0f4"/><stop offset="0.86" stop-color="#f97863"/></linearGradient></defs><title>downloadpc</title><path class="a" d="M107.6,255.8v5.5l-38.7-9.4v5l38.7,10.9,81.6-15v-5Z"/><path class="b" d="M188.4,248l-79.2,14.6H108L69.5,252c-.2-.1-.2-.4,0-.4l81.3-13.7a2.9,2.9,0,0,1,1.6.1l36.1,9.5C188.7,247.5,188.7,247.9,188.4,248Z"/><path class="c" d="M188.6,247l-36.1-9.5a3.7,3.7,0,0,0-1.8-.1L69.4,251.1a.9.9,0,0,0-.6.7.7.7,0,0,0,.6.7l38.5,10.6h1.4l79.2-14.6a1,1,0,0,0,.7-.8A.9.9,0,0,0,188.6,247Zm-79.5,15.1h-1L70.9,251.9l79.9-13.5h1.5l35,9.3Z"/><path class="d" d="M108.6,253.8l-10-6v-27l11-6C109.3,227.8,108.9,240.8,108.6,253.8Z"/><path class="e" d="M145.6,248.8l-37,5c-.3-14.4-.7-28.7-1-43h38Z"/><path class="f" d="M107.6,210.8c.3,14.3.7,28.6,1,43l1-.2-.8-42.8Z"/><path class="g" d="M237.5,200.8,15.2,240.2A12.6,12.6,0,0,1,.5,227.8L1.4,34.9A9.1,9.1,0,0,1,9.5,26L244,1.4a8.3,8.3,0,0,1,9.1,8.9Z"/><path class="h" d="M245.2,199.7,23,238.8A15,15,0,0,1,5.4,224.1L4,37.9a8.4,8.4,0,0,1,7.5-8.4L245.2,3.7a7.6,7.6,0,0,1,8.3,7.4l-.6,179.4A9.4,9.4,0,0,1,245.2,199.7Z"/><path class="i" d="M240.6,191.8l-219.8,37a5.6,5.6,0,0,1-6.4-5.4Q13.8,133.7,13,44.1a6.3,6.3,0,0,1,5.7-6.4L241.3,12.1a5.9,5.9,0,0,1,6.6,5.9q-.6,83.6-1.4,166.9A7.1,7.1,0,0,1,240.6,191.8Z"/></svg>