<svg xmlns="http://www.w3.org/2000/svg" xmlns:xlink="http://www.w3.org/1999/xlink" viewBox="0 0 137 125"><defs><style>.cls-1{fill:url(#radial-gradient);}.cls-2{fill:url(#radial-gradient-2);}.cls-3{fill:url(#radial-gradient-3);}.cls-4{fill:url(#radial-gradient-4);}.cls-5{fill:url(#radial-gradient-5);}</style><radialGradient id="radial-gradient" cx="81.89" cy="61.01" r="35.77" gradientUnits="userSpaceOnUse"><stop offset="0" stop-color="#00a7e9"/><stop offset="0.51" stop-color="#00a5e7"/><stop offset="0.69" stop-color="#009ee1"/><stop offset="0.82" stop-color="#0093d7"/><stop offset="0.92" stop-color="#0082c9"/><stop offset="1" stop-color="#0070b9"/></radialGradient><radialGradient id="radial-gradient-2" cx="37.26" cy="65.26" r="25.09" xlink:href="#radial-gradient"/><radialGradient id="radial-gradient-3" cx="81.89" cy="78.86" r="12.08" xlink:href="#radial-gradient"/><radialGradient id="radial-gradient-4" cx="79.83" cy="64.16" r="13.71" xlink:href="#radial-gradient"/><radialGradient id="radial-gradient-5" cx="217.64" cy="-4336.65" r="17.46" gradientTransform="translate(-656.09 2012.14) scale(3.35 0.44)" gradientUnits="userSpaceOnUse"><stop offset="0" width="5" height="50.18" stop-color="#adaab3"/><stop offset="0.27" stop-color="#cdcbd1"/><stop offset="0.56" stop-color="#e8e8ea"/><stop offset="0.81" stop-color="#f9f9fa"/><stop offset="1" stop-color="#fff"/></radialGradient></defs><g id="Layer_2" data-name="Layer 2"><path class="cls-1" d="M49.69,51.86A33.86,33.86,0,0,1,78.9,32.45V27.57c-.17,0-.37,0-.58,0-1.13,0-2.27,0-3.4,0a2.79,2.79,0,0,1-2.73-2.81A2.75,2.75,0,0,1,74.94,22c3.6,0,7.19,0,10.79,0a2.73,2.73,0,0,1,2.76,2.76,2.78,2.78,0,0,1-2.78,2.76c-1.23,0-2.46,0-3.69,0a1.1,1.1,0,0,0-.21.09v4.78c11.52.88,20.68,6,27,15.77a32.54,32.54,0,0,1,5,22.14A33.7,33.7,0,0,1,82.66,100c-17.27,1.16-29-10.2-32.83-19.34,1,0,1.89,0,2.81,0,.19,0,.4.37.53.61a31,31,0,0,0,48.34,7.53,30.59,30.59,0,0,0,7.28-34.52C103.61,42.52,94.38,36,81.55,35.38c-12.17-.54-21.54,4.87-28,15.23-.61,1-1.19,1.45-2.32,1.26A11.5,11.5,0,0,0,49.69,51.86Z"/><path class="cls-2" d="M46.41,67.6l25.35,5.86,0,.09H16.24l-.07-.17L33.55,62.84l0-.17L2.76,57.09V57H60.88l.07.13Z"/><polygon class="cls-3" points="94.63 72.84 94.63 82.05 69.15 82.05 69.15 72.84 65.9 72.84 65.9 84.88 97.89 84.88 97.89 72.84 94.63 72.84"/><path class="cls-4" d="M74.4,59V66H70l11.8,11.8L93.57,66H89.14V59c0-7.4-5.07-8.46-7.37-8.46H66.08S74.4,50.83,74.4,59Z"/><path class="cls-5" d="M131.45,110.87c0,4.22-26.18,7.65-58.49,7.65s-58.49-3.43-58.49-7.65,26.19-7.65,58.49-7.65S131.45,106.64,131.45,110.87Z"/></g></svg>