<svg xmlns="http://www.w3.org/2000/svg" viewBox="0 0 45 71"><defs><style>.a{fill:#d39f2a;}.b{fill:#f5c33d;}</style></defs><title>image3</title><path class="a" d="M44.3,5.2l-15,24.5a1.5,1.5,0,0,0,1.1,2.2l8.7.4a4.3,4.3,0,0,1,3.2,6.8L19.6,69a1.8,1.8,0,0,1-1.5.8H16.8a2.2,2.2,0,0,1-2.2-2.7l4.5-22.3H5.4a5.1,5.1,0,0,1-4.8-7C4.8,26.1,9.1,14.4,13.4,2.7A2.8,2.8,0,0,1,16.1.8H41.8A2.9,2.9,0,0,1,44.3,5.2Z"/><path class="b" d="M44.3,5.7l-15,24.5a1.5,1.5,0,0,0,1.1,2.2l8.7.4a4.3,4.3,0,0,1,3.2,6.8L19.6,69.5a1.8,1.8,0,0,1-1.5.8H16.8a2.2,2.2,0,0,1-2.2-2.7l4.5-22.3H5.4a5.1,5.1,0,0,1-4.8-7C4.8,26.6,9.1,14.9,13.4,3.2a2.8,2.8,0,0,1,2.7-1.9H41.8A2.9,2.9,0,0,1,44.3,5.7Z"/></svg>