<svg xmlns="http://www.w3.org/2000/svg" xmlns:xlink="http://www.w3.org/1999/xlink" viewBox="0 0 416 289"><defs><style>.cls-1{isolation:isolate;}.cls-2{fill:url(#Degradado_sin_nombre_194);}.cls-3{fill:url(#Degradado_sin_nombre_194-2);}.cls-4{fill:url(#Degradado_sin_nombre_194-3);}.cls-5{fill:url(#Degradado_sin_nombre_194-4);}.cls-6{fill:url(#Degradado_sin_nombre_200);}.cls-7{fill:#d3d4e9;}.cls-8{fill:url(#Degradado_sin_nombre_16);}.cls-9{fill:url(#Degradado_sin_nombre_80);}.cls-10{fill:url(#radial-gradient);}.cls-11{fill:#f4f8ff;}.cls-12{fill:#edf1fa;}.cls-13{fill:#aaacbe;opacity:0.6;}.cls-14,.cls-20{opacity:0.5;}.cls-15{mix-blend-mode:multiply;opacity:0.7;fill:url(#radial-gradient-2);}.cls-16{fill:#8aafd2;}.cls-17{fill:#e5e0f4;}.cls-18{fill:#c3bfcd;}.cls-19{fill:#fff;}.cls-20{fill:url(#Degradado_sin_nombre_80-2);}</style><linearGradient id="Degradado_sin_nombre_194" x1="-1474.48" y1="537.72" x2="-1474.48" y2="551.73" gradientTransform="translate(1737.85 0.93) rotate(17.4)" gradientUnits="userSpaceOnUse"><stop offset="0.03"/><stop offset="0.7" stop-color="#383f37"/></linearGradient><linearGradient id="Degradado_sin_nombre_194-2" x1="-1377.84" y1="536.83" x2="-1377.84" y2="552.62" xlink:href="#Degradado_sin_nombre_194"/><linearGradient id="Degradado_sin_nombre_194-3" x1="-1474.48" y1="524.69" x2="-1474.48" y2="529.71" xlink:href="#Degradado_sin_nombre_194"/><linearGradient id="Degradado_sin_nombre_194-4" x1="-1474.48" y1="558.88" x2="-1474.48" y2="572.89" xlink:href="#Degradado_sin_nombre_194"/><linearGradient id="Degradado_sin_nombre_200" x1="-1474.26" y1="588.34" x2="-1377.84" y2="588.34" gradientTransform="matrix(0, 1, -1, 0, 789.46, 1562.04)" gradientUnits="userSpaceOnUse"><stop offset="0.49" stop-color="#575757"/><stop offset="0.92" stop-color="#969696"/></linearGradient><linearGradient id="Degradado_sin_nombre_16" x1="-1472.79" y1="588.34" x2="-1379.31" y2="588.34" gradientTransform="matrix(0, 1, -1, 0, 789.46, 1562.04)" gradientUnits="userSpaceOnUse"><stop offset="0.08" stop-color="#40403f"/><stop offset="0.5" stop-color="#40403f"/><stop offset="0.75" stop-color="#3e3e3d"/><stop offset="0.83" stop-color="#373736"/><stop offset="0.9" stop-color="#2c2c2b"/><stop offset="0.95" stop-color="#1b1b1a"/><stop offset="0.99" stop-color="#050505"/><stop offset="1"/></linearGradient><linearGradient id="Degradado_sin_nombre_80" x1="-1472.2" y1="588.34" x2="-1379.9" y2="588.34" gradientTransform="matrix(0, 1, -1, 0, 789.46, 1562.04)" gradientUnits="userSpaceOnUse"><stop offset="0"/><stop offset="0.13" stop-color="#010101"/><stop offset="0.27" stop-color="#080808"/><stop offset="0.56" stop-color="#111"/><stop offset="1" stop-color="#141414"/></linearGradient><radialGradient id="radial-gradient" cx="201.09" cy="136.58" r="86.8" gradientUnits="userSpaceOnUse"><stop offset="0" stop-color="#aaacbe"/><stop offset="0.32" stop-color="#a6a8b9"/><stop offset="0.68" stop-color="#999bac"/><stop offset="1" stop-color="#878a99"/></radialGradient><radialGradient id="radial-gradient-2" cx="-20.21" cy="-29033.63" r="163.72" gradientTransform="translate(228.44 3463.36) scale(1.01 0.11)" gradientUnits="userSpaceOnUse"><stop offset="0" stop-color="#242424"/><stop offset="0.05" stop-color="#353535"/><stop offset="0.24" stop-color="#727272"/><stop offset="0.43" stop-color="#a4a4a4"/><stop offset="0.6" stop-color="#ccc"/><stop offset="0.76" stop-color="#e8e8e8"/><stop offset="0.9" stop-color="#f9f9f9"/><stop offset="1" stop-color="#fff"/></radialGradient><linearGradient id="Degradado_sin_nombre_80-2" x1="152.32" y1="224.63" x2="188.62" y2="224.63" gradientTransform="matrix(0.96, -0.23, 0.3, 0.75, -58.7, 96.08)" xlink:href="#Degradado_sin_nombre_80"/></defs><g class="cls-1"><g id="Layer_2" data-name="Layer 2"><path class="cls-2" d="M165.76,86.88a.9.9,0,0,1-.65-1.1L169,73.48a1,1,0,0,1,1.81.57l-3.85,12.3A.9.9,0,0,1,165.76,86.88Z"/><path class="cls-3" d="M257.7,116.66a1,1,0,0,1-.74-1.24l4.35-13.86a1.07,1.07,0,0,1,2,.64L259,116.06A1,1,0,0,1,257.7,116.66Z"/><path class="cls-4" d="M172.4,65.67c-.5-.15-.86-.41-.81-.57L173,60.68c.05-.16.5-.16,1,0s.86.42.81.58l-1.38,4.41C173.35,65.83,172.9,65.83,172.4,65.67Z"/><path class="cls-5" d="M159.43,107.07a.9.9,0,0,1-.65-1.1l3.85-12.29a1,1,0,0,1,1.82.56l-3.85,12.3A.92.92,0,0,1,159.43,107.07Z"/><rect class="cls-6" x="101.29" y="87.78" width="199.66" height="96.42" rx="13.46" transform="translate(11.22 287.25) rotate(-72.6)"/><rect class="cls-7" x="225.36" y="7.91" width="1.57" height="96.42" transform="translate(104.98 255.14) rotate(-72.6)"/><rect class="cls-8" x="102.76" y="89.25" width="196.72" height="93.47" rx="11.99" transform="translate(11.22 287.25) rotate(-72.6)"/><rect class="cls-9" x="103.35" y="89.84" width="195.54" height="92.29" rx="11.4" transform="translate(11.22 287.25) rotate(-72.6)"/><path class="cls-10" d="M269,67.19l-51,165a9.13,9.13,0,0,1-11.41,6l-67.38-20.81a9.12,9.12,0,0,1-6-11.4L184.16,41a9.13,9.13,0,0,1,11.41-6l15.25,4.71a3,3,0,0,0-.18.45l-.82,2.64A3.4,3.4,0,0,0,212.06,47l30.48,9.42a3.39,3.39,0,0,0,4.23-2.24l.82-2.64a4,4,0,0,0,.11-.47L263,55.79A9.11,9.11,0,0,1,269,67.19Z"/><path class="cls-7" d="M186.47,65.75c-2.16,17.32-8,24.47-23.66,19.47C150.94,93,140.75,87.7,132,71.18c-12.84-26.3.86-40.25,19.95-37.28,8.81-8.25,16.8-7.14,24.43-2.32C171.29,42.65,168.11,53.8,186.47,65.75Z"/><path class="cls-7" d="M155.52,31C163,23.46,171,24.19,179.4,29.55c-6,12.07-7.3,23.68,10.86,33.44-1.89,12.5-6.29,24-13.55,22.95,5.49-2.66,8.43-10.22,9.76-20.88-14-7.46-17.6-18.55-10.09-33.48C169.51,27,162.57,26.27,155.52,31Z"/><path class="cls-11" d="M134.34,37.12c4.66-4.89,11.43-6.2,19.67-5L152,33.9C146,33.46,140.07,33.74,134.34,37.12Z"/><path class="cls-12" d="M157.38,10c1.35,10.12-.52,17.67-9,19.91C147,21.16,148.72,13.94,157.38,10Z"/><path class="cls-7" d="M148.23,30.06C159.42,29,161.79,20,160.7,10h-3.32C158.94,20.52,156.38,27.61,148.23,30.06Z"/><rect class="cls-13" x="216.12" y="43.85" width="14.53" height="3.28" rx="1.17" transform="translate(22.93 -63.08) rotate(16.93)"/><circle class="cls-13" cx="239.41" cy="50.84" r="1.8"/><g class="cls-14"><path d="M214.15,130.15c-5.56,1.48-6.6,7.92-2.7,11.47a6.79,6.79,0,0,1-.39.6,17.7,17.7,0,0,1-4.8,4.2c-2,1.22-3.56,1.18-5.35-.31a7.4,7.4,0,0,0-5.94-1.8,3.87,3.87,0,0,1-4.32-2.37c-2.25-4.77-2.75-9.65-.71-14.62a7.72,7.72,0,0,1,8.26-4.94,13.4,13.4,0,0,1,3.14,1.33,3.34,3.34,0,0,1,.81.6,4,4,0,0,0,3.33,1,8.48,8.48,0,0,1,6.18,1.41A6.39,6.39,0,0,1,214.15,130.15Z"/><path d="M212,119.14a11.67,11.67,0,0,1-.86,1.89,6.55,6.55,0,0,1-6.12,3.15c-1.06-.09-1.14-.32-.71-1.29A6.67,6.67,0,0,1,212,119.14Z"/></g><path class="cls-15" d="M373.62,261c0,10-74.15,18.06-165.62,18.06S42.38,270.93,42.38,261s74.15-18,165.62-18S373.62,251,373.62,261Z"/><circle class="cls-16" cx="237.62" cy="225.43" r="30.52"/><path class="cls-17" d="M237.62,194.9a30.53,30.53,0,1,0,30.52,30.53A30.52,30.52,0,0,0,237.62,194.9Zm0,56.5a26,26,0,1,1,26-26A26,26,0,0,1,237.62,251.4Z"/><path class="cls-18" d="M237.62,256A30.43,30.43,0,0,0,259.2,247L256,243.79a26,26,0,1,1-36.74-36.73L216,203.84A30.53,30.53,0,0,0,237.62,256Z"/><rect class="cls-19" x="230.23" y="219.31" width="14.78" height="3.16"/><rect class="cls-19" x="230.23" y="214.67" width="14.78" height="3.16"/><rect class="cls-19" x="230.23" y="210.02" width="14.78" height="3.16"/><polygon class="cls-19" points="249.45 231.51 245.01 231.51 245.01 224.59 230.23 224.59 230.23 231.51 225.79 231.51 237.62 243.34 249.45 231.51"/><rect class="cls-20" x="151.57" y="223.32"  width="5" height="50.18" rx="1.3" transform="translate(73.88 -40.3) rotate(17.16)"/></g></g></svg>