<svg xmlns="http://www.w3.org/2000/svg" xmlns:xlink="http://www.w3.org/1999/xlink" viewBox="0 0 416 289"><defs><style>.cls-1{isolation:isolate;}.cls-2{fill:#d9e2fa;}.cls-3{fill:#394767;}.cls-4{fill:#cad3e8;}.cls-5{fill:#b2cbf7;}.cls-6{fill:#658db5;}.cls-7{fill:#dcdff6;}.cls-8{fill:#9cd681;}.cls-9{fill:#e9e495;}.cls-10{fill:#ef8499;}.cls-11,.cls-12,.cls-13,.cls-14,.cls-15{stroke:#d8d9da;stroke-miterlimit:10;stroke-width:0.25px;}.cls-11{fill:url(#linear-gradient);}.cls-12{fill:url(#linear-gradient-2);}.cls-13{fill:url(#linear-gradient-3);}.cls-14{fill:url(#linear-gradient-4);}.cls-15{fill:url(#linear-gradient-5);}.cls-16{fill:url(#linear-gradient-6);}.cls-17{fill:url(#linear-gradient-7);}.cls-18{mix-blend-mode:multiply;opacity:0.8;fill:url(#radial-gradient);}</style><linearGradient id="linear-gradient" x1="254.92" y1="118.99" x2="326.17" y2="61.26" gradientUnits="userSpaceOnUse"><stop offset="0.02" stop-color="#f3f8fb"/><stop offset="0.04" stop-color="#f3f8fb"/><stop offset="0.18" stop-color="#f3f8fb"/><stop offset="0.34" stop-color="#eff4f7"/><stop offset="0.52" stop-color="#e1eaed"/><stop offset="0.71" stop-color="#cbd9dc"/><stop offset="0.9" stop-color="#adc0c3"/><stop offset="0.94" stop-color="#a6bbbe"/><stop offset="1" stop-color="#a6bbbe"/></linearGradient><linearGradient id="linear-gradient-2" x1="260.34" y1="125.68" x2="331.59" y2="67.95" xlink:href="#linear-gradient"/><linearGradient id="linear-gradient-3" x1="241.56" y1="102.49" x2="312.8" y2="44.76" xlink:href="#linear-gradient"/><linearGradient id="linear-gradient-4" x1="241.81" y1="102.8" x2="313.05" y2="45.07" xlink:href="#linear-gradient"/><linearGradient id="linear-gradient-5" x1="243.38" y1="104.74" x2="314.62" y2="47.01" xlink:href="#linear-gradient"/><linearGradient id="linear-gradient-6" x1="47.71" y1="102.57" x2="143.82" y2="102.57" xlink:href="#linear-gradient"/><linearGradient id="linear-gradient-7" x1="33.77" y1="115.34" x2="135.82" y2="115.34" xlink:href="#linear-gradient"/><radialGradient id="radial-gradient" cx="-23.96" cy="-28927.97" r="175.97" gradientTransform="translate(222.8 3463.36) scale(1.01 0.11)" gradientUnits="userSpaceOnUse"><stop offset="0" stop-color="#242424"/><stop offset="0.05" stop-color="#353535"/><stop offset="0.24" stop-color="#727272"/><stop offset="0.43" stop-color="#a4a4a4"/><stop offset="0.6" stop-color="#ccc"/><stop offset="0.76" stop-color="#e8e8e8"/><stop offset="0.9" stop-color="#f9f9f9"/><stop offset="1" stop-color="#fff"/></radialGradient></defs><g class="cls-1"><g id="Layer_5" data-name="Layer 5"><rect class="cls-2" x="84.56" y="26.04" width="244.51" height="183.54" rx="11.65"/><rect class="cls-3" x="88.2" y="28.78"  width="5" height="50.18" rx="12.11"/><path class="cls-4" d="M174.44,240.23c10.68-7.75,14.95-18.31,15.21-30.64h29.78c.26,12.33,4.53,22.89,15.21,30.64Z"/><path class="cls-4" d="M255.08,256.09c1-9.44-3.39-15.74-14.73-15.85H173.12c-11.34.11-15.6,5.56-14.57,15l49.48.85Z"/><path class="cls-5" d="M357.81,147.05,215.07,132.46a5.5,5.5,0,0,1-4.92-5.92l7.23-87.77L369.86,48.84l-6,93.09A5.5,5.5,0,0,1,357.81,147.05Z"/><path class="cls-6" d="M369.86,48.84,217.38,38.77l2.11-19.58a7.55,7.55,0,0,1,7.88-6.73l138,6.84a7.56,7.56,0,0,1,7.12,8.48Z"/><rect class="cls-7" x="231.35" y="22.56" width="72.55" height="10.52" rx="1.3" transform="translate(1.82 -13.97) rotate(3)"/><circle class="cls-8" cx="325.03" cy="31.75" r="5.7"/><circle class="cls-9" cx="342.24" cy="33.06" r="5.7"/><circle class="cls-10" cx="359.46" cy="34.38" r="5.7"/><path class="cls-11" d="M307.52,109.52c-7.4,13.86-14.63,18-26.17,8.73-12.47,2.69-19.34-5-21.36-21.75C257.68,70.26,273.7,63,288.79,71.61c10.06-4.1,16.42-.58,21.28,5.93C302.22,85.21,296,93.55,307.52,109.52Z"/><path class="cls-12" d="M292.71,70.35c8.69-4,15.22-.75,20.55,6.46-8.93,8.21-13.77,17.55-1.66,31.61-5.62,9.9-13,18.11-18.79,14.91,5.47-.46,10.38-5.86,14.94-14.39-9.4-10.81-8.81-21.28,2.32-31.4C305.79,71.43,300.18,68.62,292.71,70.35Z"/><path class="cls-13" d="M272.94,68.63c5.5-2.61,11.61-1.52,18.15,2.15l-2.3.83C283.92,69.31,278.85,67.63,272.94,68.63Z"/><path class="cls-14" d="M301.07,53.26c-2.13,8.94-6.14,14.68-14,13.82C288.69,59.29,292.52,53.79,301.07,53.26Z"/><path class="cls-15" d="M286.9,67.18c9.76,2.68,14.64-4.06,17-12.85l-2.78-1.07C299,62.61,294.54,67.76,286.9,67.18Z"/><path class="cls-16" d="M142.4,70a96,96,0,0,0,1.21,11.84c1.32,8.42-3.54,13.47-11.34,18.67-17.22,11.47-28.88,28.54-40.12,45.59-3.18,4.82-4.87,5.25-8.45.44a98.7,98.7,0,0,0-32.53-27.93c-5.59-3-3.61-4.54.28-6.77,5.9-3.38,11.89-6.64,17.43-10.54,4.55-3.19,6.38-1.59,8.36,2.72,2.81,6.13,6.19,12,10.38,20,5.46-14.55,11.63-26.84,20-37.56,9.57-12.29,19-25.11,34.34-31.31Z"/><path class="cls-17" d="M134.8,105.1a47.79,47.79,0,0,1-6.84,5.51A43.42,43.42,0,1,1,84.8,71.93,43.18,43.18,0,0,1,107,78a19.66,19.66,0,0,1,5.42-5.6,51,51,0,1,0,23.45,42.94A51.62,51.62,0,0,0,134.8,105.1Z"/></g><g id="Layer_2" data-name="Layer 2"><path class="cls-18" d="M376.58,272.61c0,10.72-79.7,19.41-178,19.41s-178-8.69-178-19.41,79.7-19.41,178-19.41S376.58,261.89,376.58,272.61Z"/></g></g></svg>