<svg xmlns="http://www.w3.org/2000/svg" xmlns:xlink="http://www.w3.org/1999/xlink" viewBox="0 0 30 30"><defs><style>.a{fill:url(#a);}.b{fill:url(#b);}.c{fill:url(#c);}</style><linearGradient id="a" x1="344.04" y1="128.83" x2="314.8" y2="169.81" gradientTransform="matrix(-0.71, -0.71, -0.71, 0.71, 356.61, 147.71)" gradientUnits="userSpaceOnUse"><stop offset="0" stop-color="#18a3f4"/><stop offset="0.84" stop-color="#1d7bdf"/></linearGradient><linearGradient id="b" x1="350.45" y1="133.4" x2="321.21" y2="174.38" xlink:href="#a"/><linearGradient id="c" x1="347.24" y1="131.12" x2="318.01" y2="172.1" gradientTransform="matrix(0, -1, -1, 0, 162.71, 350.4)" xlink:href="#a"/></defs><title>link</title><path class="a" d="M26.1,2.4l1.5,1.5a7.6,7.6,0,0,1,0,10.8l-5,5-2.2-2.1,5.1-5a4.7,4.7,0,0,0,0-6.6L24,4.5a4.7,4.7,0,0,0-6.6,0l-5,5.1L10.3,7.4l5-5A7.6,7.6,0,0,1,26.1,2.4Z"/><path class="b" d="M4.5,17.4a4.7,4.7,0,0,0,0,6.6L6,25.5a4.7,4.7,0,0,0,6.6,0l5-5.1,2.1,2.2-5,5a7.6,7.6,0,0,1-10.8,0L2.4,26.1a7.6,7.6,0,0,1,0-10.8l5-5,2.2,2.1Z"/><rect class="c" x="8.1" y="13.3" width="13.8" height="3.44" transform="translate(-6.2 15) rotate(-45)"/></svg>