<svg xmlns="http://www.w3.org/2000/svg" xmlns:xlink="http://www.w3.org/1999/xlink" viewBox="0 0 137 125"><defs><style>.cls-1{isolation:isolate;}.cls-11,.cls-13,.cls-2,.cls-6,.cls-8{mix-blend-mode:multiply;}.cls-2{opacity:0.7;fill:url(#radial-gradient);}.cls-3{fill:url(#linear-gradient);}.cls-4{fill:url(#linear-gradient-2);}.cls-5{fill:url(#New_Gradient_Swatch_2);}.cls-6{fill:url(#linear-gradient-3);}.cls-7{fill:url(#New_Gradient_Swatch_2-2);}.cls-8{fill:url(#linear-gradient-4);}.cls-9{fill:url(#linear-gradient-5);}.cls-10{fill:url(#New_Gradient_Swatch_2-3);}.cls-11{fill:url(#linear-gradient-6);}.cls-12{fill:url(#New_Gradient_Swatch_2-4);}.cls-13{fill:url(#linear-gradient-7);}.cls-14{fill:url(#linear-gradient-8);}.cls-15,.cls-16,.cls-17,.cls-18{mix-blend-mode:overlay;}.cls-15,.cls-16{opacity:0.5;}.cls-15{fill:url(#radial-gradient-2);}.cls-16{fill:url(#radial-gradient-3);}.cls-17,.cls-18{opacity:0.6;}.cls-17{fill:url(#radial-gradient-4);}.cls-18{fill:url(#radial-gradient-5);}.cls-19{fill:url(#linear-gradient-9);}.cls-20{fill:url(#linear-gradient-10);}.cls-21{fill:url(#linear-gradient-11);}.cls-22{fill:url(#linear-gradient-12);}.cls-23{fill:url(#linear-gradient-13);}.cls-24{fill:url(#linear-gradient-14);}.cls-25{fill:url(#linear-gradient-15);}.cls-26{fill:url(#linear-gradient-16);}.cls-27{fill:url(#linear-gradient-17);}.cls-28{fill:url(#linear-gradient-18);}.cls-29{fill:url(#linear-gradient-19);}.cls-30{fill:url(#linear-gradient-20);}.cls-31{fill:url(#New_Gradient_Swatch_2-5);}.cls-32{fill:url(#New_Gradient_Swatch_2-6);}.cls-33{fill:#3f4451;}.cls-34{fill:url(#linear-gradient-21);}.cls-35{fill:#fff;}.cls-36{fill:url(#linear-gradient-22);}.cls-37{fill:url(#linear-gradient-23);}.cls-38{fill:url(#Áåçûìÿííûé_ãðàäèåíò_43);}.cls-39{fill:url(#Áåçûìÿííûé_ãðàäèåíò_47);}.cls-40{fill:url(#Áåçûìÿííûé_ãðàäèåíò_43-2);}.cls-41{fill:url(#Áåçûìÿííûé_ãðàäèåíò_47-2);}.cls-42{fill:url(#Áåçûìÿííûé_ãðàäèåíò_43-3);}.cls-43{fill:url(#Áåçûìÿííûé_ãðàäèåíò_47-3);}.cls-44{fill:#f2f2f2;}</style><radialGradient id="radial-gradient" cx="-166.95" cy="-14255.94" r="81.38" gradientTransform="translate(244.12 1689.03) scale(1.01 0.11)" gradientUnits="userSpaceOnUse"><stop offset="0" stop-color="#242424"/><stop offset="0.05" stop-color="#353535"/><stop offset="0.24" stop-color="#727272"/><stop offset="0.43" stop-color="#a4a4a4"/><stop offset="0.6" stop-color="#ccc"/><stop offset="0.76" stop-color="#e8e8e8"/><stop offset="0.9" stop-color="#f9f9f9"/><stop offset="1" stop-color="#fff"/></radialGradient><linearGradient id="linear-gradient" x1="-2100.55" y1="462.26" x2="-2104.91" y2="460.4" gradientTransform="translate(2194.44 425.37) rotate(22.17)" gradientUnits="userSpaceOnUse"><stop offset="0" stop-color="#505768"/><stop offset="0.51" stop-color="#646e81"/><stop offset="1" stop-color="#505768"/></linearGradient><linearGradient id="linear-gradient-2" x1="-2061.58" y1="462.05" x2="-2057.61" y2="460.62" xlink:href="#linear-gradient"/><linearGradient id="New_Gradient_Swatch_2" x1="2793.07" y1="474.06" x2="2793.07" y2="500.34" gradientTransform="matrix(-0.93, -0.38, -0.38, 0.93, 2867.41, 699.84)" gradientUnits="userSpaceOnUse"><stop offset="0" stop-color="#2e3039"/><stop offset="0.32" stop-color="#464c5a"/><stop offset="0.5" stop-color="#505768"/><stop offset="1" stop-color="#2e3039"/></linearGradient><linearGradient id="linear-gradient-3" x1="2790.75" y1="487.7" x2="2794.77" y2="487.41" gradientTransform="matrix(-0.93, -0.38, -0.38, 0.93, 2867.41, 699.84)" gradientUnits="userSpaceOnUse"><stop offset="0" stop-color="#2e3039"/><stop offset="0.08" stop-color="#33353f" stop-opacity="0.86"/><stop offset="0.47" stop-color="#484e5d" stop-opacity="0.24"/><stop offset="0.68" stop-color="#505768" stop-opacity="0"/></linearGradient><linearGradient id="New_Gradient_Swatch_2-2" x1="2785.58" y1="473.85" x2="2785.58" y2="500.12" xlink:href="#New_Gradient_Swatch_2"/><linearGradient id="linear-gradient-4" x1="2788.11" y1="487.87" x2="2784.31" y2="488.28" xlink:href="#linear-gradient-3"/><linearGradient id="linear-gradient-5" x1="2789.01" y1="473.85" x2="2789.01" y2="500.07" gradientTransform="matrix(1, -0.06, -0.06, -1, -2651.63, 763.29)" xlink:href="#linear-gradient"/><linearGradient id="New_Gradient_Swatch_2-3" x1="-2095.91" y1="474.43" x2="-2095.91" y2="500.63" gradientTransform="translate(-2053.11 440.06) rotate(-176.36)" xlink:href="#New_Gradient_Swatch_2"/><linearGradient id="linear-gradient-6" x1="-2098.19" y1="487.99" x2="-2094.18" y2="487.7" gradientTransform="translate(-2053.11 440.06) rotate(-176.36)" xlink:href="#linear-gradient-3"/><linearGradient id="New_Gradient_Swatch_2-4" x1="-2103.21" y1="474.13" x2="-2103.21" y2="500.4" gradientTransform="translate(2194.44 425.37) rotate(22.17)" xlink:href="#New_Gradient_Swatch_2"/><linearGradient id="linear-gradient-7" x1="-2100.69" y1="488.15" x2="-2104.49" y2="488.56" gradientTransform="translate(2194.44 425.37) rotate(22.17)" xlink:href="#linear-gradient-3"/><linearGradient id="linear-gradient-8" x1="-2099.79" y1="474.13" x2="-2099.79" y2="500.35" gradientTransform="matrix(1, 0.06, -0.06, 1, 2192.29, -268.58)" xlink:href="#linear-gradient"/><radialGradient id="radial-gradient-2" cx="-5664.95" cy="19419.55" r="10.63" gradientTransform="matrix(-1, 0, 0, -0.18, -5599.61, 3500.73)" gradientUnits="userSpaceOnUse"><stop offset="0" stop-color="#fff" stop-opacity="0.9"/><stop offset="1" stop-color="#768094" stop-opacity="0"/></radialGradient><radialGradient id="radial-gradient-3" cx="-5339.85" cy="23650.8" r="10.62" gradientTransform="matrix(-1, 0, 0, -0.18, -5240.77, 4261.26)" xlink:href="#radial-gradient-2"/><radialGradient id="radial-gradient-4" cx="-6002.67" cy="13257.07" r="5.39" gradientTransform="matrix(-0.11, 0.99, -0.12, -0.01, 1055.9, 6211.13)" xlink:href="#radial-gradient-2"/><radialGradient id="radial-gradient-5" cx="-4621.11" cy="42682.46" r="5.39" gradientTransform="matrix(-0.63, 0.78, -0.09, -0.08, 1107.83, 6858.03)" xlink:href="#radial-gradient-2"/><linearGradient id="linear-gradient-9" x1="85.48" y1="56.3" x2="110.28" y2="56.3" gradientTransform="matrix(1, 0, 0, 1, 0, 0)" xlink:href="#linear-gradient"/><linearGradient id="linear-gradient-10" x1="80.69" y1="91.16" x2="87.33" y2="91.16" gradientTransform="matrix(1, 0, 0, 1, 0, 0)" xlink:href="#linear-gradient"/><linearGradient id="linear-gradient-11" x1="78.06" y1="89.69" x2="82.9" y2="89.69" gradientTransform="matrix(1, 0, 0, 1, 0, 0)" xlink:href="#linear-gradient"/><linearGradient id="linear-gradient-12" x1="85.12" y1="92.63" x2="89.97" y2="92.63" gradientTransform="matrix(1, 0, 0, 1, 0, 0)" xlink:href="#linear-gradient"/><linearGradient id="linear-gradient-13" x1="80.42" y1="90.4" x2="84.1" y2="90.4" gradientTransform="matrix(1, 0, 0, 1, 0, 0)" xlink:href="#linear-gradient"/><linearGradient id="linear-gradient-14" x1="83.95" y1="91.89" x2="87.6" y2="91.89" gradientTransform="matrix(1, 0, 0, 1, 0, 0)" xlink:href="#linear-gradient"/><linearGradient id="linear-gradient-15" x1="87.91" y1="93.41" x2="90.67" y2="93.41" gradientTransform="matrix(1, 0, 0, 1, 0, 0)" xlink:href="#linear-gradient"/><linearGradient id="linear-gradient-16" x1="77.37" y1="88.9" x2="80.13" y2="88.9" gradientTransform="matrix(1, 0, 0, 1, 0, 0)" xlink:href="#linear-gradient"/><linearGradient id="linear-gradient-17" x1="76.06" y1="88.14" x2="77.93" y2="88.14" gradientTransform="matrix(1, 0, 0, 1, 0, 0)" xlink:href="#linear-gradient"/><linearGradient id="linear-gradient-18" x1="90.1" y1="94.16" x2="91.97" y2="94.16" gradientTransform="matrix(1, 0, 0, 1, 0, 0)" xlink:href="#linear-gradient"/><linearGradient id="linear-gradient-19" x1="74.46" y1="87.36" x2="76.02" y2="87.36" gradientTransform="matrix(1, 0, 0, 1, 0, 0)" xlink:href="#linear-gradient"/><linearGradient id="linear-gradient-20" x1="92.01" y1="94.92" x2="93.58" y2="94.92" gradientTransform="matrix(1, 0, 0, 1, 0, 0)" xlink:href="#linear-gradient"/><linearGradient id="New_Gradient_Swatch_2-5" x1="-2104.65" y1="481.15" x2="-2110.72" y2="478.57" gradientTransform="translate(2194.44 425.37) rotate(22.17)" xlink:href="#New_Gradient_Swatch_2"/><linearGradient id="New_Gradient_Swatch_2-6" x1="3013.25" y1="480.87" x2="3007.17" y2="478.28" gradientTransform="matrix(-0.93, -0.38, -0.38, 0.93, 3079.58, 786.28)" xlink:href="#New_Gradient_Swatch_2"/><linearGradient id="linear-gradient-21" x1="1596.05" y1="687.01" x2="1597.38" y2="664.47" gradientTransform="translate(-1691.06 147.36) rotate(-26.97)" xlink:href="#linear-gradient"/><linearGradient id="linear-gradient-22" x1="1439.04" y1="639.13" x2="1439.04" y2="602.27" gradientTransform="matrix(1, 0, 0, 1, -1387.57, -566.94)" xlink:href="#linear-gradient"/><linearGradient id="linear-gradient-23" x1="1439.04" y1="604.73" x2="1439.04" y2="595.22" gradientTransform="matrix(0.92, -0.4, 0.4, 0.92, -1515.71, 60.29)" xlink:href="#linear-gradient"/><radialGradient id="Áåçûìÿííûé_ãðàäèåíò_43" cx="1417.28" cy="597.65" r="0.95" gradientTransform="matrix(0.92, -0.4, 0.4, 0.92, -1515.71, 60.29)" gradientUnits="userSpaceOnUse"><stop offset="0" stop-color="#fff"/><stop offset="1" stop-color="#656565"/></radialGradient><linearGradient id="Áåçûìÿííûé_ãðàäèåíò_47" x1="1417.27" y1="597.8" x2="1417.27" y2="597.54" gradientTransform="matrix(1, 0, 0, 1, -1394.96, -556.32)" gradientUnits="userSpaceOnUse"><stop offset="0" stop-color="#a4a4a4"/><stop offset="1"/></linearGradient><radialGradient id="Áåçûìÿííûé_ãðàäèåíò_43-2" cx="1416.05" cy="602.27" r="0.95" xlink:href="#Áåçûìÿííûé_ãðàäèåíò_43"/><linearGradient id="Áåçûìÿííûé_ãðàäèåíò_47-2" x1="3069.55" y1="3140.53" x2="3069.55" y2="3140.27" gradientTransform="translate(-3046.54 -3094.6)" xlink:href="#Áåçûìÿííûé_ãðàäèåíò_47"/><radialGradient id="Áåçûìÿííûé_ãðàäèåíò_43-3" cx="1421.96" cy="602.27" r="0.95" xlink:href="#Áåçûìÿííûé_ãðàäèåíò_43"/><linearGradient id="Áåçûìÿííûé_ãðàäèåíò_47-3" x1="-2006.04" y1="928.03" x2="-2006.04" y2="927.78" gradientTransform="translate(2034.62 -884.19)" xlink:href="#Áåçûìÿííûé_ãðàäèåíò_47"/></defs><g class="cls-1"><g id="Layer_2" data-name="Layer 2"><path class="cls-2" d="M157.56,116.6c0,5-36.85,9-82.32,9s-82.33-4-82.33-9,36.86-9,82.33-9S157.56,111.65,157.56,116.6Z"/><path class="cls-3" d="M66.55,71.34,64,71.42c.42-.84,11.7-21.87,21.7-20.78l-.18,1.65c-4.54-.5-9.41,4.5-12.7,8.77A63.37,63.37,0,0,0,66.55,71.34Z"/><path class="cls-4" d="M109.73,89.12a84.75,84.75,0,0,0,2.47-12c.64-5.35.64-12.33-3-15.15l1-1.3c7.91,6.21,1.19,28.63.91,29.53Z"/><path class="cls-5" d="M92.9,110.12l-1.42-.69a2.52,2.52,0,0,1-1.17-3.36l9.16-18.93A2.51,2.51,0,0,1,102.82,86l1.43.69Z"/><path class="cls-6" d="M92.9,110.12l-1.42-.69a2.52,2.52,0,0,1-1.17-3.36l9.16-18.93A2.51,2.51,0,0,1,102.82,86l1.43.69Z"/><path class="cls-7" d="M108.77,93.16s-2,9.65-8.06,16.67l-2.95-1.43,8.06-16.66Z"/><path class="cls-8" d="M108.77,93.16s-2,9.65-8.06,16.67l-2.95-1.43,8.06-16.66Z"/><path class="cls-9" d="M102.53,85.75h.29a0,0,0,0,1,0,0v27a0,0,0,0,1,0,0h-.29a4.12,4.12,0,0,1-4.12-4.12V89.86A4.12,4.12,0,0,1,102.53,85.75Z" transform="translate(147.98 232.43) rotate(-154.19)"/><path class="cls-10" d="M71.24,73.38h.27a0,0,0,0,1,0,0V99.43a0,0,0,0,1,0,0h-.27a3.83,3.83,0,0,1-3.83-3.83V77.2a3.83,3.83,0,0,1,3.83-3.83Z" transform="translate(107.89 190.4) rotate(-161.48)"/><path class="cls-11" d="M71.24,73.38h.27a0,0,0,0,1,0,0V99.43a0,0,0,0,1,0,0h-.27a3.83,3.83,0,0,1-3.83-3.83V77.2a3.83,3.83,0,0,1,3.83-3.83Z" transform="translate(107.89 190.4) rotate(-161.48)"/><path class="cls-12" d="M64,74.93s-5.35,8.28-5.88,17.56l3.09,1L67.13,76Z"/><path class="cls-13" d="M64,74.93s-5.35,8.28-5.88,17.56l3.09,1L67.13,76Z"/><path class="cls-14" d="M67.5,71.47h.29a0,0,0,0,1,0,0v27a0,0,0,0,1,0,0H67.5a4.12,4.12,0,0,1-4.12-4.12V75.59A4.12,4.12,0,0,1,67.5,71.47Z" transform="translate(30.4 -16.43) rotate(18.52)"/><ellipse class="cls-15" cx="65.64" cy="84.52" rx="10.62" ry="1.87" transform="translate(-35.36 119.91) rotate(-71.48)"/><ellipse class="cls-16" cx="100.78" cy="98.94" rx="10.62" ry="1.87" transform="translate(-32.17 146.58) rotate(-64.19)"/><path class="cls-17" d="M112.6,81.12c-.36,0-.39-2.47-.08-5.43s.86-5.33,1.21-5.29.39,2.47.07,5.43S113,81.16,112.6,81.12Z"/><path class="cls-18" d="M69.33,64.09c-.27-.23,1-2.28,2.91-4.59s3.62-4,3.9-3.77-1,2.27-2.9,4.58S69.61,64.31,69.33,64.09Z"/><path class="cls-19" d="M85.66,50.64s15.57-.89,24.62,10l-1,1.3S92.35,51.7,85.48,52.29Z"/><path class="cls-20" d="M83.48,91l2.64-6.16c.06-.15.1-.36.22-.43a1,1,0,0,1,.69-.18c.15.06.25.38.3.6s-.09.27-.14.41q-2.66,6.19-5.32,12.39c-.06.14-.1.34-.21.39s-.49.22-.65.15-.26-.39-.31-.61.09-.28.15-.41L83.48,91Z"/><path class="cls-21" d="M81,89.9l-1.71,4c-.06.13-.12.27-.19.4a.52.52,0,0,1-.72.25.53.53,0,0,1-.28-.71,2.33,2.33,0,0,1,.11-.28c1.17-2.74,2.35-5.47,3.52-8.21.06-.13.09-.34.2-.39a1.05,1.05,0,0,1,.69-.15c.15.06.24.38.27.6s-.1.31-.16.46C82.16,87.21,81.58,88.55,81,89.9Z"/><path class="cls-22" d="M88.05,92.87,86.28,97c-.06.14-.09.34-.2.39s-.49.22-.66.14-.25-.38-.29-.59.1-.31.16-.46q1.74-4,3.46-8.07a2.48,2.48,0,0,1,.17-.37.49.49,0,0,1,.7-.26.52.52,0,0,1,.31.69,1.89,1.89,0,0,1-.13.33C89.22,90.15,88.64,91.51,88.05,92.87Z"/><path class="cls-23" d="M81.75,90.16c.36-.86.73-1.71,1.1-2.57l.14-.32c.15-.32.39-.51.75-.37a.55.55,0,0,1,.3.79c-.83,2-1.67,3.91-2.51,5.86a.54.54,0,0,1-.77.33.53.53,0,0,1-.26-.79C80.91,92.11,81.33,91.13,81.75,90.16Z"/><path class="cls-24" d="M85.24,91.71c.4-.93.79-1.86,1.2-2.79.21-.49.53-.69.86-.5s.34.59.18,1c-.8,1.84-1.58,3.69-2.39,5.53a1,1,0,0,1-.58.51c-.44.09-.69-.37-.48-.87C84.42,93.6,84.83,92.66,85.24,91.71Z"/><path class="cls-25" d="M89.81,93.61c-.26.61-.53,1.22-.78,1.83-.15.36-.41.57-.78.41s-.41-.47-.26-.83c.53-1.22,1.05-2.44,1.57-3.66.15-.36.41-.55.78-.38s.39.49.24.85C90.31,92.42,90.06,93,89.81,93.61Z"/><path class="cls-26" d="M79.26,89.11c-.26.61-.53,1.22-.78,1.83-.16.37-.41.55-.79.39s-.39-.49-.23-.84c.52-1.21,1-2.41,1.55-3.62.15-.35.38-.57.77-.41s.41.5.24.87c-.26.59-.51,1.19-.76,1.78Z"/><path class="cls-27" d="M76.49,87.91c.13-.29.24-.58.38-.87a.55.55,0,0,1,1,.44c-.24.6-.5,1.19-.77,1.78a.54.54,0,0,1-1-.43c.11-.31.26-.62.39-.92Z"/><path class="cls-28" d="M91.56,94.36l-.38.87a.5.5,0,0,1-.72.31.51.51,0,0,1-.3-.73c.25-.58.49-1.16.75-1.74a.55.55,0,0,1,1,.42C91.81,93.79,91.68,94.07,91.56,94.36Z"/><path class="cls-29" d="M75.74,87.62c-.08.18-.11.42-.24.53a1,1,0,0,1-.66.27.47.47,0,0,1-.35-.66c.15-.39.31-.77.49-1.15a.5.5,0,0,1,.71-.24.51.51,0,0,1,.29.7c-.06.19-.16.37-.23.55Z"/><path class="cls-30" d="M93.3,95.12c-.08.19-.15.37-.23.55a.51.51,0,0,1-.71.28.5.5,0,0,1-.31-.69c.14-.37.3-.74.47-1.1a.51.51,0,0,1,.71-.28.52.52,0,0,1,.29.74c-.07.17-.14.34-.22.5Z"/><polygon class="cls-31" points="66.67 71.23 66.35 71.68 64.19 71.95 61.01 79.78 61.88 80.92 61.13 82.76 59.44 80.17 63.48 70.76 66.67 71.23"/><polygon class="cls-32" points="109.46 88.67 109.38 89.21 110.73 90.91 107.54 98.73 106.11 98.94 105.36 100.78 108.38 100.11 112.07 90.56 109.46 88.67"/><path class="cls-33" d="M57.11,11.46,25.52,44.27a2.57,2.57,0,1,1-3.7-3.56L53.41,7.9a2.57,2.57,0,0,1,3.7,3.56Z"/><path class="cls-34" d="M56.19,10.92,24.59,43.73a2.57,2.57,0,0,1-3.7-3.56L52.49,7.35a2.57,2.57,0,0,1,3.7,3.57Z"/><polygon class="cls-35" points="30.82 29.86 26.27 34.58 31.85 36.22 36.4 31.49 30.82 29.86"/><polygon class="cls-35" points="37.24 23.19 32.69 27.91 38.27 29.55 42.82 24.82 37.24 23.19"/><polygon class="cls-35" points="43.66 16.52 39.11 21.25 44.69 22.88 49.24 18.16 43.66 16.52"/><polygon class="cls-35" points="50.08 9.86 45.53 14.58 51.11 16.21 55.66 11.49 50.08 9.86"/><rect class="cls-33" x="27.65" y="36.17" width="49.82" height="36.86" rx="4.06" transform="translate(-17.45 25.57) rotate(-23.57)"/><rect class="cls-36" x="26.63" y="35.32" width="49.82" height="36.86" rx="4.06" transform="translate(-17.19 25.09) rotate(-23.57)"/><path d="M68.64,29.63l-45.87,20a1.57,1.57,0,0,1-2.06-.81L19.9,47a18.35,18.35,0,0,1,0-5.23c.48-4.33,10.77-1.17,10.77-1.17L66.58,24.9a1.56,1.56,0,0,1,2.06.81l.81,1.85A1.57,1.57,0,0,1,68.64,29.63Z"/><path class="cls-37" d="M68.09,29.11l-45.88,20a1.56,1.56,0,0,1-2.06-.81l-.81-1.85a18.73,18.73,0,0,1,0-5.23c.48-4.33,10.77-1.17,10.77-1.17L66,24.38a1.58,1.58,0,0,1,2.07.81l.81,1.86A1.57,1.57,0,0,1,68.09,29.11Z"/><polygon class="cls-35" points="41.94 40.46 35.93 43.08 29.92 39.96 35.93 37.34 41.94 40.46"/><polygon class="cls-35" points="50.52 36.72 44.51 39.34 38.49 36.22 44.51 33.6 50.52 36.72"/><polygon class="cls-35" points="59.09 32.98 53.08 35.6 47.07 32.48 53.08 29.86 59.09 32.98"/><polygon class="cls-35" points="67.67 29.24 61.65 31.86 55.64 28.74 61.65 26.12 67.67 29.24"/><path class="cls-38" d="M23.24,41A.95.95,0,1,1,22,40.46.95.95,0,0,1,23.24,41Z"/><rect class="cls-39" x="21.44" y="41.22" width="1.88" height="0.26" transform="translate(-14.67 12.4) rotate(-23.57)"/><path class="cls-40" d="M24,45.68a.94.94,0,0,1-.49,1.24,1,1,0,0,1-1.25-.49.94.94,0,0,1,.49-1.24A1,1,0,0,1,24,45.68Z"/><rect class="cls-41" x="22.15" y="45.93" width="1.88" height="0.26" transform="translate(-26.05 61.52) rotate(-80.84)"/><path class="cls-42" d="M29.38,43.31a.95.95,0,1,1-1.25-.49A.95.95,0,0,1,29.38,43.31Z"/><rect class="cls-43" x="27.57" y="43.56" width="1.88" height="0.26" transform="matrix(0.73, 0.68, -0.68, 0.73, 37.27, -7.74)"/><rect class="cls-44" x="59.02" y="41.25" width="0.56" height="14.15" transform="translate(132.98 68.92) rotate(156.43)"/><rect class="cls-44" x="41.94" y="48.7" width="0.56" height="14.15" transform="translate(103.24 90.02) rotate(156.43)"/><rect class="cls-44" x="22.14" y="42.52" width="49.82" height="0.45" transform="translate(107.27 63.1) rotate(156.43)"/><rect class="cls-44" x="33.46" y="68.47" width="49.82" height="0.45" transform="translate(-22.6 29.07) rotate(-23.57)"/><rect class="cls-44" x="26.15" y="51.7" width="49.82" height="0.45" transform="translate(-16.5 24.75) rotate(-23.57)"/><rect class="cls-44" x="29.99" y="60.5" width="49.82" height="0.45" transform="translate(-19.7 27.02) rotate(-23.57)"/><rect class="cls-44" x="31.57" y="64.13" width="49.82" height="0.45" transform="translate(-21.02 27.95) rotate(-23.57)"/><rect class="cls-44" x="55.41" y="60.56" width="0.56" height="3.97" transform="translate(-20.36 27.49) rotate(-23.57)"/><rect class="cls-44" x="67.65" y="55.22" width="5" height="50.18"  transform="translate(-17.2 31.93) rotate(-23.57)"/></g></g></svg>