<?xml version="1.0" encoding="utf-8"?>
<!-- Generator: Adobe Illustrator 27.5.0, SVG Export Plug-In . SVG Version: 6.00 Build 0)  -->
<svg version="1.1" xmlns="http://www.w3.org/2000/svg" xmlns:xlink="http://www.w3.org/1999/xlink" x="0px" y="0px"
	 viewBox="0 0 500 500" style="enable-background:new 0 0 500 500;" xml:space="preserve">
<g id="Background">
</g>
<g id="Objects">
	<g>
		<g>
			<path style="fill:#D7EFF9;" d="M431.409,181.525c-9.038-24.519-27.164-44.935-52.851-52.16
				c-12.308-3.462-25.156-4.411-37.874-5.723c-19.996-2.063-40.631-5.335-57.395-16.428c-6.244-4.132-8.107-9.884-15.781-14.055
				c-6.546-3.559-13.194-6.917-20.25-9.359c-23.268-8.05-49.318-5.864-72.298,2.973s-43.122,23.95-60.612,41.279
				c-15.1,14.961-28.65,32.045-36.125,51.944c-4.662,12.409-6.855,25.647-7.541,38.885c-1.7,32.774,5.953,66.119,22.646,94.374
				c14.444,24.45,35.703,44.93,60.853,58.041h202.977c3.122-1.603,6.194-3.3,9.205-5.106c30.346-18.202,54.044-47.233,65.801-80.61
				S443.648,214.728,431.409,181.525z"/>
			<path style="fill:#FFFFFF;" d="M261.724,130.917c0.568-0.001,1.162-0.01,1.661-0.281c0.799-0.436,1.116-1.403,1.355-2.281
				c0.669-2.456,1.129-5.484-0.753-7.199c-1.21-1.103-3.146-1.223-4.583-0.438c-1.437,0.785-2.36,2.355-2.55,3.981
				c-0.242-1.228-1.585-2.021-2.835-1.953s-2.373,0.818-3.23,1.73c0.703-2.166-0.246-4.753-2.182-5.952
				c-1.937-1.198-4.675-0.893-6.3,0.702c-1.625,1.595-1.981,4.328-0.818,6.286c-0.789-0.753-1.886-1.242-2.967-1.1
				c-1.082,0.142-2.084,1.019-2.173,2.106c-1.128-0.621-2.379-1.14-3.662-1.033c-2.534,0.211-3.817,3.403-1.641,4.985
				c1.784,1.297,5.923,0.511,7.929,0.505C246.557,130.956,254.141,130.936,261.724,130.917z"/>
			<path style="fill:#D7EFF9;" d="M344.101,113.081c0.568-0.001,1.162-0.009,1.661-0.281c0.799-0.436,1.116-1.403,1.355-2.281
				c0.67-2.456,1.129-5.484-0.753-7.199c-1.21-1.103-3.146-1.223-4.583-0.438c-1.437,0.785-2.36,2.355-2.55,3.981
				c-0.242-1.228-1.585-2.021-2.835-1.953s-2.373,0.818-3.23,1.73c0.703-2.166-0.246-4.753-2.182-5.952
				c-1.936-1.198-4.675-0.893-6.3,0.702c-1.625,1.595-1.981,4.328-0.818,6.286c-0.789-0.753-1.886-1.242-2.967-1.1
				c-1.082,0.142-2.084,1.019-2.173,2.106c-1.128-0.621-2.379-1.14-3.662-1.033c-2.534,0.211-3.817,3.403-1.641,4.985
				c1.784,1.297,5.923,0.511,7.929,0.505C328.934,113.12,336.518,113.101,344.101,113.081z"/>
		</g>
		<g>
			<g>
				<g>
					<path style="fill:#D1D3D4;" d="M282.511,370.577h-58.59c-2.227,0-3.974-1.911-3.775-4.129l6.083-67.926
						c0.175-1.955,1.813-3.452,3.775-3.452h46.015c1.954,0,3.587,1.485,3.773,3.43l6.491,67.926
						C286.497,368.651,284.747,370.577,282.511,370.577z"/>
					<path style="fill:#D1D3D4;" d="M276.02,295.07h-46.015c-1.962,0-3.6,1.498-3.775,3.452l-3.55,39.643
						c10.318-2.793,32.222-6.791,60.778-1.321l-3.664-38.344C279.607,296.555,277.974,295.07,276.02,295.07z"/>
				</g>
				<g>
					<path style="fill:#FFFFFF;" d="M393.035,327.275H113.397c-5.006,0-9.101-4.095-9.101-9.101V152.868
						c0-5.006,4.096-9.101,9.101-9.101h279.638c5.006,0,9.101,4.096,9.101,9.101v165.306
						C402.137,323.18,398.041,327.275,393.035,327.275z"/>
					<path style="fill:#383838;" d="M393.035,143.767H113.397c-5.006,0-9.101,4.096-9.101,9.101v138.378h297.84V152.868
						C402.137,147.863,398.041,143.767,393.035,143.767z"/>
					<rect x="115.958" y="153.723" style="fill:#D7EFF9;" width="5" height="50.18"/>
					<g>
						<path style="fill:#1F74C2;" d="M262.449,195.849c3.551-3.488,8.711-4.332,13.042-2.558l-7.954,7.813
							c-1.867,1.833-1.894,4.861-0.06,6.727c1.833,1.867,4.861,1.894,6.728,0.06l7.954-7.813c1.697,4.363,0.76,9.506-2.791,12.994
							c-3.551,3.488-8.711,4.332-13.042,2.558l-25.954,25.493c-1.867,1.833-4.894,1.806-6.728-0.06
							c-1.833-1.867-1.806-4.894,0.06-6.728l25.954-25.493C257.961,204.481,258.898,199.337,262.449,195.849z"/>
						<g>
							<path style="fill:#1F74C2;" d="M253.205,212.39l-13.31-12.731c0,0,5.02-5.093,10.149-3.565c0,0,0.837,0.192,1.2-0.286
								c0.364-0.478,0.436-0.805-0.873-1.424c-1.31-0.618-9.13-4.62-18.26,6.366c0,0,1.055,5.966-5.202,5.093l-3.456,3.383
								l7.275,7.13l3.492-3.565c0,0-1.6-2.546,0.873-4.474c2.474-1.928,4.62,0.4,4.62,0.4l8.199,8.788L253.205,212.39z"/>
							<path style="fill:#1F74C2;" d="M277.362,235.707l-13.844-13.304l-5.861,5.453l12.721,13.744c0,0,4.365,2.255,6.366-0.255
								C278.745,238.835,278.053,236.507,277.362,235.707z"/>
						</g>
					</g>
					<g>
						<path style="fill:#E54C64;" d="M123.926,162.191c0,1.125-0.912,2.037-2.037,2.037s-2.037-0.912-2.037-2.037
							c0-1.125,0.912-2.037,2.037-2.037S123.926,161.065,123.926,162.191z"/>
						<path style="fill:#FBB040;" d="M131.455,162.191c0,1.125-0.912,2.037-2.037,2.037c-1.125,0-2.037-0.912-2.037-2.037
							c0-1.125,0.912-2.037,2.037-2.037C130.543,160.153,131.455,161.065,131.455,162.191z"/>
						<path style="fill:#8DC63F;" d="M138.984,162.191c0,1.125-0.912,2.037-2.037,2.037c-1.125,0-2.037-0.912-2.037-2.037
							c0-1.125,0.912-2.037,2.037-2.037C138.072,160.153,138.984,161.065,138.984,162.191z"/>
					</g>
					<path style="fill:#FFFFFF;" d="M383.503,164.228H166.451c-1.53,0-2.782-1.252-2.782-2.782l0,0c0-1.53,1.252-2.783,2.782-2.783
						h217.052c1.53,0,2.783,1.252,2.783,2.783l0,0C386.285,162.976,385.033,164.228,383.503,164.228z"/>
					
						<text transform="matrix(1 0 0 1 166.9829 162.8291)" style="fill:#1F74C2; font-family:'MyriadPro-Regular'; font-size:4.872px;">www.</text>
				</g>
				<path style="fill:#FFFFFF;" d="M305.093,367.77H201.34c-0.235,0-0.428,0.192-0.428,0.427v1.952c0,0.235,0.192,0.428,0.428,0.428
					h103.752c0.235,0,0.428-0.192,0.428-0.428v-1.952C305.52,367.962,305.328,367.77,305.093,367.77z"/>
			</g>
			<g>
				<g>
					<path style="opacity:0.4;fill:#D7EFF9;" d="M238.401,342.487h-65.084c-1.136,0-2.066-0.93-2.066-2.066v-32.797
						c0-1.136,0.93-2.066,2.066-2.066h65.084c1.136,0,2.066,0.93,2.066,2.066v32.797
						C240.468,341.557,239.538,342.487,238.401,342.487z"/>
					<path style="fill:none;stroke:#1F74C2;stroke-miterlimit:10;" d="M238.401,342.487h-65.084c-1.136,0-2.066-0.93-2.066-2.066
						v-32.797c0-1.136,0.93-2.066,2.066-2.066h65.084c1.136,0,2.066,0.93,2.066,2.066v32.797
						C240.468,341.557,239.538,342.487,238.401,342.487z"/>
				</g>
				<g style="opacity:0.8;">
					<path style="opacity:0.6;fill:#FFFFFF;" d="M216.181,326.352c-3.115,2.069-7.317,1.221-9.385-1.894
						c-2.069-3.115-1.221-7.317,1.894-9.386c3.115-2.069,7.317-1.221,9.386,1.893C220.143,320.081,219.295,324.284,216.181,326.352z
						"/>
					<path style="opacity:0.6;fill:#FFFFFF;" d="M216.181,326.352c0.342-0.227,0.655-0.481,0.942-0.756l-5.505-11.604
						c-1.016,0.123-2.019,0.476-2.929,1.081c-0.069,0.046-0.135,0.094-0.202,0.141l5.946,11.967
						C215.038,326.994,215.627,326.72,216.181,326.352z"/>
					<path style="opacity:0.6;fill:#FFFFFF;" d="M213.392,327.416l-5.941-11.286c-0.212,0.23-0.405,0.473-0.581,0.726l5.454,10.625
						C212.679,327.488,213.036,327.467,213.392,327.416z"/>
					<path style="fill:#1F74C2;" d="M206.305,324.784c-2.245-3.38-1.322-7.955,2.058-10.2c3.38-2.245,7.955-1.322,10.2,2.058
						s1.322,7.956-2.058,10.2C213.126,329.087,208.55,328.164,206.305,324.784z M217.585,317.292
						c-1.886-2.84-5.731-3.616-8.571-1.729c-2.84,1.886-3.615,5.731-1.729,8.571c1.886,2.84,5.731,3.616,8.571,1.729
						C218.695,323.977,219.471,320.132,217.585,317.292z"/>
					<path style="fill:#1F74C2;" d="M207.12,324.948l-13.527,9.547c-0.477,0.336-1.136,0.223-1.472-0.254
						c-0.337-0.477-0.223-1.136,0.254-1.472c0.015-0.011,0.034-0.023,0.05-0.033l14.045-8.767c0.275-0.172,0.638-0.088,0.81,0.187
						C207.446,324.422,207.372,324.77,207.12,324.948z"/>
				</g>
			</g>
			<g>
				<path style="opacity:0.7;fill:#FFFFFF;" d="M209.644,287.286H86.358c-2.153,0-3.914-1.761-3.914-3.914v-62.125
					c0-2.153,1.761-3.914,3.914-3.914h123.286c2.153,0,3.914,1.761,3.914,3.914v62.125
					C213.558,285.525,211.797,287.286,209.644,287.286z"/>
				<path style="fill:none;stroke:#1F74C2;stroke-miterlimit:10;" d="M209.644,287.286H86.358c-2.153,0-3.914-1.761-3.914-3.914
					v-62.125c0-2.153,1.761-3.914,3.914-3.914h123.286c2.153,0,3.914,1.761,3.914,3.914v62.125
					C213.558,285.525,211.797,287.286,209.644,287.286z"/>
				<g style="opacity:0.8;">
					<path style="fill:#2481D3;" d="M146.575,231.668c-3.42,3.131-12.176,11.009-17.196,14.274c-0.741,0.482-1.102,1.377-0.912,2.24
						c0.899,4.085,4.564,15.629,18.358,24.967c0.704,0.477,1.647,0.477,2.352,0c13.794-9.338,17.46-20.881,18.358-24.967
						c0.19-0.863-0.171-1.758-0.911-2.24c-5.02-3.265-13.776-11.143-17.196-14.274C148.618,230.927,147.384,230.927,146.575,231.668
						z"/>
					<path style="fill:#FFFFFF;" d="M146.703,233.517c-3.114,2.85-11.085,10.022-15.656,12.995c-0.675,0.439-1.003,1.253-0.83,2.039
						c0.818,3.719,4.155,14.229,16.713,22.73c0.641,0.434,1.5,0.434,2.141,0c12.558-8.501,15.895-19.01,16.713-22.73
						c0.173-0.786-0.155-1.601-0.83-2.039c-4.57-2.973-12.542-10.145-15.656-12.995C148.563,232.843,147.44,232.843,146.703,233.517
						z"/>
					<path style="fill:#2481D3;" d="M164.955,246.512c-4.57-2.973-12.542-10.145-15.656-12.995
						c-0.368-0.337-0.833-0.506-1.298-0.506v19.846h16.439c0.713-1.808,1.125-3.307,1.345-4.306
						C165.958,247.766,165.63,246.951,164.955,246.512z"/>
					<path style="fill:#2481D3;" d="M131.562,252.858c1.941,4.924,6.183,12.206,15.369,18.424c0.321,0.217,0.696,0.326,1.071,0.326
						v-18.75H131.562z"/>
				</g>
			</g>
			<g>
				<path style="opacity:0.7;fill:#FFFFFF;" d="M409.343,188.699H286.058c-2.153,0-3.914-1.761-3.914-3.914v-62.125
					c0-2.153,1.761-3.914,3.914-3.914h123.286c2.153,0,3.914,1.761,3.914,3.914v62.125
					C413.257,186.938,411.496,188.699,409.343,188.699z"/>
				<path style="fill:none;stroke:#1F74C2;stroke-miterlimit:10;" d="M409.343,188.699H286.058c-2.153,0-3.914-1.761-3.914-3.914
					v-62.125c0-2.153,1.761-3.914,3.914-3.914h123.286c2.153,0,3.914,1.761,3.914,3.914v62.125
					C413.257,186.938,411.496,188.699,409.343,188.699z"/>
				<g style="opacity:0.8;">
					<path style="fill:#13588C;" d="M333.62,168.891h28.948c1.575,0,3.185-1.289,3.578-2.864l4.139-16.602
						c0.393-1.575-0.575-2.864-2.15-2.864h-28.948c-1.575,0-3.185,1.289-3.578,2.864l-4.139,16.602
						C331.077,167.602,332.045,168.891,333.62,168.891z"/>
					<path style="fill:#1F74C2;" d="M361.781,168.891h-28.948c-1.575,0-3.185-1.289-3.578-2.864l-4.139-16.602
						c-0.393-1.575,0.575-2.864,2.15-2.864h28.948c1.575,0,3.185,1.289,3.578,2.864l4.139,16.602
						C364.324,167.602,363.356,168.891,361.781,168.891z"/>
				</g>
			</g>
			<g>
				<g>
					<path style="opacity:0.7;fill:#FFFFFF;" d="M200.307,146.56h-77.646c-1.356,0-2.465-1.109-2.465-2.465v-39.126
						c0-1.356,1.109-2.465,2.465-2.465h77.646c1.356,0,2.465,1.109,2.465,2.465v39.126
						C202.772,145.451,201.663,146.56,200.307,146.56z"/>
					<path style="fill:none;stroke:#1F74C2;stroke-miterlimit:10;" d="M200.307,146.56h-77.646c-1.356,0-2.465-1.109-2.465-2.465
						v-39.126c0-1.356,1.109-2.465,2.465-2.465h77.646c1.356,0,2.465,1.109,2.465,2.465v39.126
						C202.772,145.451,201.663,146.56,200.307,146.56z"/>
				</g>
				<g style="opacity:0.8;">
					
						<polygon style="fill:none;stroke:#1F74C2;stroke-width:2.8347;stroke-linecap:round;stroke-linejoin:round;stroke-miterlimit:10;" points="
						161.484,112.4 147.475,136.665 175.494,136.665 					"/>
					<g>
						<path style="fill:#1F74C2;" d="M160.356,132.348c0-0.688,0.478-1.186,1.128-1.186c0.688,0,1.128,0.497,1.128,1.186
							c0,0.669-0.44,1.185-1.128,1.185C160.815,133.534,160.356,133.018,160.356,132.348z M160.834,129.615l-0.268-9.177h1.835
							l-0.268,9.177H160.834z"/>
					</g>
				</g>
			</g>
		</g>
		<g>
			<g>
				<path style="opacity:0.7;fill:#FFFFFF;" d="M413.853,283.405h-90.013c-1.572,0-2.858-1.286-2.858-2.858v-45.358
					c0-1.572,1.286-2.858,2.858-2.858h90.013c1.572,0,2.858,1.286,2.858,2.858v45.358
					C416.71,282.119,415.424,283.405,413.853,283.405z"/>
				<path style="fill:none;stroke:#1F74C2;stroke-miterlimit:10;" d="M413.853,283.405h-90.013c-1.572,0-2.858-1.286-2.858-2.858
					v-45.358c0-1.572,1.286-2.858,2.858-2.858h90.013c1.572,0,2.858,1.286,2.858,2.858v45.358
					C416.71,282.119,415.424,283.405,413.853,283.405z"/>
				<path style="fill:#2481D3;" d="M384.331,255.657l-1.293-0.358l1.167-0.661c0.149-0.085,0.202-0.276,0.118-0.425l-5.085-8.981
					c-0.085-0.149-0.276-0.202-0.425-0.118l-1.168,0.661l0.358-1.293c0.046-0.165-0.052-0.338-0.217-0.384l-9.946-2.755
					c-0.165-0.046-0.338,0.052-0.384,0.217l-0.358,1.293l-0.661-1.167c-0.085-0.149-0.276-0.202-0.425-0.118l-8.981,5.085
					c-0.149,0.085-0.203,0.276-0.118,0.426l0.661,1.167l-1.293-0.358c-0.165-0.046-0.338,0.052-0.384,0.217l-2.755,9.946
					c-0.046,0.165,0.052,0.338,0.217,0.384l1.293,0.358l-1.167,0.661c-0.15,0.084-0.202,0.276-0.118,0.425l5.085,8.981
					c0.085,0.149,0.276,0.203,0.425,0.118l1.167-0.661l-0.358,1.293c-0.046,0.165,0.052,0.338,0.217,0.384l9.946,2.755
					c0.165,0.046,0.338-0.052,0.384-0.217l0.358-1.293l0.661,1.168c0.085,0.149,0.276,0.202,0.426,0.118l8.981-5.085
					c0.149-0.084,0.202-0.276,0.118-0.425l-0.661-1.167l1.293,0.358c0.165,0.046,0.338-0.052,0.384-0.217l2.755-9.946
					C384.595,255.876,384.497,255.703,384.331,255.657z M366.659,264.944c-4.362-1.208-6.918-5.723-5.71-10.085
					c1.208-4.362,5.723-6.918,10.085-5.71c4.362,1.208,6.918,5.723,5.71,10.085C375.535,263.595,371.02,266.152,366.659,264.944z"/>
			</g>
			<path style="fill:#A05E47;" d="M317.448,270.061c0.232-0.895,0.668-1.898,1.564-2.125c1.208-0.306,2.209,1.036,2.451,2.259
				c0.242,1.223,0.152,2.588,0.9,3.586c0.889-0.678,2.274-0.585,3.065,0.204c0.791,0.79,0.885,2.175,0.209,3.065
				c-0.1,0.131-0.216,0.258-0.254,0.418c-0.136,0.582,0.708,0.794,1.268,1.005c1.067,0.402,1.572,1.726,1.336,2.842
				c-0.236,1.116-1.048,2.027-1.952,2.721c-3.182,2.443-5.795,0.778-7.314-2.275C316.938,278.177,316.442,273.946,317.448,270.061z"
				/>
			<path style="fill:#A05E47;" d="M412.793,264.032c0.159-0.398,0.416-0.774,0.79-0.984c0.852-0.477,2.009,0.147,2.346,1.063
				c0.147,0.399,0.312,0.946,0.736,0.92c0.766-1.932-0.243-4.167,0.275-6.18c0.139-0.542,0.461-1.115,1.009-1.231
				c0.585-0.124,1.137,0.335,1.464,0.837c0.607,0.934,0.783,2.071,1.017,3.16c0.052,0.241,0.116,0.498,0.302,0.66
				c0.172,0.15,0.412,0.187,0.629,0.256c0.604,0.193,1.1,0.696,1.285,1.303c0.074,0.245,0.1,0.501,0.161,0.75
				c0.309,1.258,1.456,2.136,1.972,3.325c0.435,1.003,0.384,2.164,0.079,3.215c-0.305,1.05-0.846,2.014-1.383,2.967
				c-0.123,0.218-0.263,0.452-0.495,0.546c-0.164,0.066-0.348,0.051-0.523,0.027c-0.637-0.09-1.253-0.294-1.854-0.525
				c-1.827-0.704-3.551-1.676-5.099-2.876C413.588,269.781,411.805,266.508,412.793,264.032z"/>
			<path style="fill:#2481D3;" d="M413.321,268.261c-11.592,20.392-26.907,23.077-27.688,23.201c-3.667,0.526-6.232,3.91-5.738,7.59
				c0.263,1.962,1.344,3.612,2.852,4.656c1.336,0.925,3.007,1.374,4.745,1.14c0.91-0.122,22.451-3.3,37.578-29.907
				C420.922,271.084,413.321,268.261,413.321,268.261z"/>
			<path style="fill:#1C74B5;" d="M385.633,291.461c-3.667,0.526-6.232,3.91-5.738,7.59c0.263,1.962,1.344,3.612,2.852,4.656
				c1.336,0.925,3.007,1.374,4.745,1.14c0.402-0.054,4.835-0.709,10.96-3.713c-5.047-5.653-5.812-10.301-5.895-12.107
				C388.667,290.938,385.95,291.411,385.633,291.461z"/>
			<path style="fill:#171C27;" d="M345.826,401.37v3.34c0,0-13.306,2.589-25.344,0l5.484-3.34H345.826z"/>
			<path style="fill:#171C27;" d="M430.27,381.428h3.626c0,0,2.331,13,0,18.62c0,0-1.645,2.399-5.072,2.056
				c0,0,2.001-1.407,1.446-3.993V381.428z"/>
			<path style="fill:#062538;" d="M392.937,348.285l0.563,31.097l36.77,2.046c0,0,2.406,11.551,0,16.683h-36.77
				c0,0-18.878,3.38-19.922-14.738c-1.044-18.118-1.133-30.159-1.133-30.159S385.274,346.737,392.937,348.285z"/>
			<path style="fill:#0A3759;" d="M393.525,343.71c0,0,4.301,13.772-3.714,16.689c-8.014,2.917-45.652,0-45.652,0l1.667,40.971
				c0,0-10.694,3.333-19.861,0l-1.25-48.193c0,0-2.962-13.794,23.888-11.534L393.525,343.71z"/>
			<g>
				<g>
					<polygon style="fill:#A05E47;" points="384.411,278.039 383.83,289.163 378.461,293.563 373.641,290.269 373.99,283.579 					
						"/>
				</g>
				<path style="fill:#A05E47;" d="M375.874,287.762l-2.867-0.149c-4.405-0.23-7.82-4.021-7.591-8.426l0.573-10.984
					c0.23-4.404,4.021-7.82,8.425-7.59l2.867,0.149c4.405,0.23,7.821,4.021,7.591,8.426l-0.573,10.984
					C384.07,284.576,380.278,287.991,375.874,287.762z"/>
				<path style="fill:#171C27;" d="M375.063,282.569c-1.362-1.561-1.911-3.651-2.407-5.662c-0.081-0.329-0.162-0.674-0.077-1.002
					c0.085-0.323,0.318-0.582,0.529-0.841c0.511-0.629,0.94-1.376,0.958-2.186c0.018-0.81-0.485-1.672-1.277-1.843
					c-0.931-0.201-1.832,0.626-2.068,1.549c-0.236,0.923,0.011,1.892,0.257,2.812c-0.943,0.41-1.918-0.689-2.006-1.714
					c-0.088-1.025,0.306-2.049,0.2-3.072c-0.171-1.657-1.558-2.873-2.552-4.209c-0.994-1.336-1.531-3.464-0.227-4.5
					c0.54-0.428,1.262-0.54,1.871-0.861c1.03-0.543,1.661-1.639,2.642-2.267c0.689-0.441,1.509-0.625,2.318-0.746
					c4.86-0.726,10.441,1.011,12.741,5.353c1.735,3.276,1.293,7.228,0.805,10.903c-0.408,3.073-0.368,7.985-3.46,9.626
					C380.687,285.301,377.052,284.848,375.063,282.569z"/>
			</g>
			<path style="fill:#2481D3;" d="M383.504,288.625c0,0,10.797,0,9.977,11.613c-0.82,11.613-2.323,18.518-0.957,26.052
				c1.367,7.533,1.001,17.42,1.001,17.42s-22.321,7.311-34.484-0.693c0,0,1.777-37.757,2.187-43.564
				c0.41-5.807,5.868-10.887,14.486-10.829c8.618,0.058,8.618,0.058,8.618,0.058"/>
			<path style="fill:#0D314C;" d="M374.992,343.242c10.816,0,18.564-3.877,18.674-3.934c0.104-0.053,0.145-0.182,0.092-0.285
				c-0.054-0.104-0.185-0.145-0.285-0.092c-0.157,0.08-15.941,7.969-33.905,1.043c-0.11-0.042-0.232,0.012-0.274,0.121
				c-0.042,0.11,0.013,0.233,0.122,0.273C364.939,342.499,370.26,343.242,374.992,343.242z"/>
			
				<path style="fill:none;stroke:#45596D;stroke-width:0.2835;stroke-linecap:round;stroke-linejoin:round;stroke-miterlimit:10;" d="
				M384.333,288.683"/>
			<path style="fill:#0D314C;" d="M393.359,333.84c0.003,0,0.006,0,0.009,0c0.117-0.006,0.208-0.104,0.203-0.221
				c-0.166-3.756-0.832-7.332-0.839-7.368c-0.977-5.385-0.489-10.34,0.185-17.197c0.255-2.593,0.545-5.533,0.776-8.8
				c0.008-0.117-0.081-0.218-0.198-0.227c-0.095-0.005-0.218,0.079-0.227,0.197c-0.23,3.26-0.519,6.197-0.774,8.788
				c-0.653,6.632-1.169,11.871-0.181,17.316c0.007,0.036,0.668,3.585,0.832,7.308C393.152,333.75,393.246,333.84,393.359,333.84z"/>
			<path style="fill:#0D314C;" d="M392.504,343.9c0.117,0,0.212-0.095,0.212-0.212v-2.963c0-0.117-0.095-0.212-0.212-0.212
				c-0.117,0-0.212,0.095-0.212,0.212v2.963C392.292,343.805,392.387,343.9,392.504,343.9z"/>
			<path style="fill:#0D314C;" d="M391.106,343.735c0.117,0,0.212-0.095,0.212-0.212v-2.099c0-0.117-0.095-0.212-0.212-0.212
				c-0.117,0-0.212,0.095-0.212,0.212v2.099C390.894,343.64,390.989,343.735,391.106,343.735z"/>
			<path style="fill:#0D314C;" d="M389.6,344.488c0.117,0,0.212-0.095,0.212-0.212v-2.422c0-0.117-0.095-0.212-0.212-0.212
				c-0.117,0-0.212,0.095-0.212,0.212v2.422C389.388,344.393,389.483,344.488,389.6,344.488z"/>
			<path style="fill:#0D314C;" d="M387.825,344.813c0.117,0,0.212-0.095,0.212-0.212v-1.939c0-0.117-0.095-0.212-0.212-0.212
				c-0.117,0-0.212,0.095-0.212,0.212v1.939C387.613,344.718,387.708,344.813,387.825,344.813z"/>
			<path style="fill:#0D314C;" d="M386.211,345.193c0.117,0,0.212-0.095,0.212-0.212v-2.159c0-0.117-0.095-0.212-0.212-0.212
				c-0.117,0-0.212,0.095-0.212,0.212v2.159C385.999,345.098,386.094,345.193,386.211,345.193z"/>
			<path style="fill:#0D314C;" d="M384.651,345.579c0.117,0,0.212-0.095,0.212-0.212V343.2c0-0.117-0.095-0.212-0.212-0.212
				s-0.212,0.095-0.212,0.212v2.167C384.439,345.484,384.534,345.579,384.651,345.579z"/>
			<path style="fill:#0D314C;" d="M382.823,345.569c0.117,0,0.212-0.095,0.212-0.212v-2.05c0-0.117-0.095-0.212-0.212-0.212
				c-0.117,0-0.212,0.095-0.212,0.212v2.05C382.61,345.474,382.706,345.569,382.823,345.569z"/>
			<path style="fill:#0D314C;" d="M381.263,345.671c0.117,0,0.212-0.095,0.212-0.212v-1.775c0-0.117-0.095-0.212-0.212-0.212
				s-0.212,0.095-0.212,0.212v1.775C381.051,345.576,381.146,345.671,381.263,345.671z"/>
			<path style="fill:#0D314C;" d="M379.864,346.225c0.117,0,0.212-0.095,0.212-0.212v-2.115c0-0.117-0.095-0.212-0.212-0.212
				c-0.117,0-0.212,0.095-0.212,0.212v2.115C379.652,346.131,379.747,346.225,379.864,346.225z"/>
			<path style="fill:#0D314C;" d="M377.982,345.834c0.117,0,0.212-0.095,0.212-0.212v-1.347c0-0.117-0.095-0.212-0.212-0.212
				c-0.117,0-0.212,0.095-0.212,0.212v1.347C377.77,345.738,377.865,345.834,377.982,345.834z"/>
			<path style="fill:#0D314C;" d="M376.69,346.264c0.117,0,0.212-0.095,0.212-0.212v-1.669c0-0.117-0.095-0.212-0.212-0.212
				c-0.117,0-0.212,0.095-0.212,0.212v1.669C376.478,346.169,376.573,346.264,376.69,346.264z"/>
			<path style="fill:#0D314C;" d="M375.454,346.435c0.117,0,0.212-0.095,0.212-0.212v-2.109c0-0.117-0.095-0.212-0.212-0.212
				c-0.117,0-0.212,0.095-0.212,0.212v2.109C375.242,346.34,375.337,346.435,375.454,346.435z"/>
			<path style="fill:#0D314C;" d="M374.109,346.502c0.117,0,0.212-0.095,0.212-0.212v-2.176c0-0.117-0.095-0.212-0.212-0.212
				c-0.117,0-0.212,0.095-0.212,0.212v2.176C373.897,346.407,373.992,346.502,374.109,346.502z"/>
			<path style="fill:#0D314C;" d="M372.657,346.055c0.117,0,0.212-0.095,0.212-0.212v-1.729c0-0.117-0.095-0.212-0.212-0.212
				c-0.117,0-0.212,0.095-0.212,0.212v1.729C372.445,345.959,372.54,346.055,372.657,346.055z"/>
			<path style="fill:#0D314C;" d="M371.258,345.834c0.117,0,0.212-0.095,0.212-0.212v-1.508c0-0.117-0.095-0.212-0.212-0.212
				s-0.212,0.095-0.212,0.212v1.508C371.046,345.738,371.141,345.834,371.258,345.834z"/>
			<path style="fill:#0D314C;" d="M369.59,346.225c0.117,0,0.212-0.095,0.212-0.212v-2.061c0-0.117-0.095-0.212-0.212-0.212
				c-0.117,0-0.212,0.095-0.212,0.212v2.061C369.378,346.131,369.473,346.225,369.59,346.225z"/>
			<path style="fill:#0D314C;" d="M368.031,345.864c0.117,0,0.212-0.095,0.212-0.212v-2.238c0-0.117-0.095-0.212-0.212-0.212
				c-0.117,0-0.212,0.095-0.212,0.212v2.238C367.819,345.769,367.914,345.864,368.031,345.864z"/>
			<path style="fill:#0D314C;" d="M366.848,345.502c0.117,0,0.212-0.095,0.212-0.212v-2.036c0-0.117-0.095-0.212-0.212-0.212
				c-0.117,0-0.212,0.095-0.212,0.212v2.036C366.635,345.407,366.731,345.502,366.848,345.502z"/>
			<path style="fill:#0D314C;" d="M365.341,345.3c0.117,0,0.212-0.095,0.212-0.212v-2.211c0-0.117-0.095-0.212-0.212-0.212
				s-0.212,0.095-0.212,0.212v2.211C365.129,345.205,365.224,345.3,365.341,345.3z"/>
			<path style="fill:#0D314C;" d="M364.051,344.978c0.117,0,0.212-0.095,0.212-0.212v-2.159c0-0.117-0.095-0.212-0.212-0.212
				s-0.212,0.095-0.212,0.212v2.159C363.839,344.883,363.934,344.978,364.051,344.978z"/>
			<path style="fill:#0D314C;" d="M362.544,344.598c0.117,0,0.212-0.095,0.212-0.212v-1.939c0-0.117-0.095-0.212-0.212-0.212
				c-0.117,0-0.212,0.095-0.212,0.212v1.939C362.332,344.503,362.427,344.598,362.544,344.598z"/>
			<path style="fill:#0D314C;" d="M361.092,343.789c0.117,0,0.212-0.095,0.212-0.212v-1.992c0-0.117-0.095-0.212-0.212-0.212
				c-0.117,0-0.212,0.095-0.212,0.212v1.992C360.88,343.694,360.975,343.789,361.092,343.789z"/>
			<path style="fill:#0D314C;" d="M360.016,343.415c0.117,0,0.212-0.095,0.212-0.212v-2.102c0-0.117-0.095-0.212-0.212-0.212
				c-0.117,0-0.212,0.095-0.212,0.212v2.102C359.804,343.32,359.899,343.415,360.016,343.415z"/>
			<path style="fill:#2481D3;" d="M375.569,293.803c-1.806-3.266-5.923-4.45-9.183-2.643c-0.794,0.437-19.693,10.491-36.083-14.609
				c-5.435,1.183-11.315,7.388-11.315,7.388c17.225,26.378,39.881,25.219,51.472,20.249c0.89-0.382,1.715-0.786,2.467-1.202
				C376.192,301.181,377.375,297.07,375.569,293.803z"/>
			<path style="fill:#1C74B5;" d="M360.816,306.735c0,0,3.021-0.246,5.792-1.177l-6.167,8.536L360.816,306.735z"/>
		</g>
	</g>
</g>
<g id="Designed_by_freepik">
	<g>
		<g id="XMLID_1_">
			<g id="XMLID_20_">
				<path id="XMLID_28_" style="fill:#112129;" d="M260.104,466.12c-0.432,0.443-0.803,0.931-1.108,1.453l-0.465-0.241
					c-0.067-0.298-0.349-0.503-0.659-0.466c-0.331,0.039-0.568,0.339-0.529,0.67c0.039,0.331,0.339,0.568,0.67,0.529
					c0.066-0.008,0.127-0.026,0.184-0.052l0.451,0.234c-0.251,0.554-0.433,1.139-0.539,1.744l0.747,0.132
					c0.23-1.306,0.85-2.507,1.792-3.473L260.104,466.12z"/>
				<path id="XMLID_27_" style="fill:#112129;" d="M265.592,463.818c-0.171,0-0.341,0.006-0.51,0.017l-0.074-0.626
					c0.188-0.149,0.296-0.389,0.266-0.645c-0.046-0.393-0.402-0.674-0.795-0.628c-0.393,0.046-0.674,0.402-0.628,0.795
					c0.03,0.254,0.189,0.461,0.404,0.564l0.074,0.624c-0.714,0.116-1.403,0.332-2.06,0.646l0.327,0.684
					c0.934-0.447,1.942-0.673,2.995-0.673c0.496,0,0.993,0.053,1.475,0.158l0.161-0.741
					C266.692,463.877,266.142,463.818,265.592,463.818z"/>
				<path id="XMLID_26_" style="fill:#112129;" d="M272.194,466.366c0.331-0.04,0.566-0.342,0.526-0.672
					c-0.04-0.331-0.341-0.566-0.672-0.526c-0.309,0.038-0.535,0.304-0.53,0.609l-0.416,0.363c-0.418-0.43-0.889-0.813-1.408-1.139
					l-0.404,0.641c1.134,0.715,2.021,1.726,2.563,2.925l0.69-0.313c-0.251-0.554-0.567-1.072-0.942-1.545l0.402-0.351
					C272.065,466.37,272.129,466.374,272.194,466.366z"/>
				<path id="XMLID_25_" style="fill:#112129;" d="M265.044,474.027c-0.386,0.023-0.775,0.035-1.157,0.035
					c-0.88,0-1.733-0.061-2.478-0.179c-0.39-0.062-0.846-0.155-1.27-0.292c1.046,1.861,3.069,3.125,5.388,3.125
					c2.855,0,5.262-1.916,5.95-4.504c-0.682,0.449-1.505,0.825-2.459,1.123C267.839,473.702,266.463,473.941,265.044,474.027z"/>
				<path id="XMLID_21_" style="fill:#112129;" d="M265.592,465.334c-3.352,0-6.08,2.666-6.08,5.943
					c0,0.426,0.046,0.849,0.137,1.261c0.673,0.483,2.706,0.89,5.348,0.731c2.879-0.173,5.297-0.957,6.672-2.159
					c-0.006-0.195-0.021-0.39-0.045-0.582C271.244,467.568,268.65,465.334,265.592,465.334z M263.432,471.849
					c-1.02,0-1.85-0.83-1.85-1.85c0-1.02,0.83-1.85,1.85-1.85c1.02,0,1.85,0.83,1.85,1.85
					C265.282,471.02,264.452,471.849,263.432,471.849z M268.17,470.941c-0.75,0-1.36-0.61-1.36-1.36c0-0.75,0.61-1.361,1.36-1.361
					c0.75,0,1.361,0.61,1.361,1.361C269.53,470.331,268.92,470.941,268.17,470.941z"/>
			</g>
			<path id="XMLID_18_" style="fill:#112129;" d="M281.595,467.202c-0.295-0.116-0.805-0.309-1.382-0.237
				c-0.551,0.069-0.844,0.341-0.844,1.007v0.866h2.228v1.717h-2.228v5.455h-1.932v-5.455h-1.34v-1.717h1.34v-0.888
				c0-1.68,0.896-2.783,2.568-2.783c0.643,0,1.157,0.122,1.59,0.308L281.595,467.202z"/>
			<path id="XMLID_16_" style="fill:#112129;" d="M286.298,470.534c-0.177-0.03-0.358-0.046-0.526-0.046
				c-0.896,0-1.51,0.548-1.51,1.613v3.908h-1.932v-7.172h1.873v0.785c0.451-0.673,1.14-0.977,2.021-0.977
				c0.414,0,0.848,0.128,1.094,0.337L286.298,470.534z"/>
			<path id="XMLID_13_" style="fill:#112129;" d="M293.965,472.412c0,0.222-0.015,0.489-0.037,0.651h-5.085
				c0.207,1.036,0.933,1.488,1.843,1.488c0.622,0,1.295-0.252,1.813-0.688l1.133,1.243c-0.814,0.748-1.85,1.088-3.057,1.088
				c-2.198,0-3.723-1.495-3.723-3.753c0-2.258,1.48-3.797,3.627-3.797C292.544,468.644,293.958,470.177,293.965,472.412z
				 M288.851,471.746h3.175c-0.177-0.918-0.733-1.436-1.562-1.436C289.554,470.31,289.021,470.858,288.851,471.746z"/>
			<path id="XMLID_10_" style="fill:#112129;" d="M301.618,472.412c0,0.222-0.015,0.489-0.037,0.651h-5.085
				c0.207,1.036,0.933,1.488,1.843,1.488c0.622,0,1.295-0.252,1.814-0.688l1.132,1.243c-0.814,0.748-1.85,1.088-3.057,1.088
				c-2.198,0-3.723-1.495-3.723-3.753c0-2.258,1.48-3.797,3.627-3.797C300.197,468.644,301.611,470.177,301.618,472.412z
				 M296.504,471.746h3.175c-0.178-0.918-0.733-1.436-1.562-1.436C297.207,470.31,296.674,470.858,296.504,471.746z"/>
			<path id="XMLID_7_" style="fill:#112129;" d="M309.964,472.419c0,2.154-1.495,3.775-3.471,3.775
				c-0.962,0-1.643-0.378-2.109-0.933v3.708h-1.924v-10.133h1.887v0.792c0.466-0.585,1.155-0.984,2.139-0.984
				C308.469,468.644,309.964,470.265,309.964,472.419z M304.287,472.419c0,1.132,0.748,1.976,1.843,1.976
				c1.14,0,1.85-0.881,1.85-1.976c0-1.095-0.71-1.976-1.85-1.976C305.035,470.443,304.287,471.287,304.287,472.419z"/>
			<path id="XMLID_4_" style="fill:#112129;" d="M313.068,466.491c0,0.696-0.54,1.229-1.236,1.229c-0.696,0-1.229-0.533-1.229-1.229
				c0-0.696,0.533-1.243,1.229-1.243C312.527,465.247,313.068,465.795,313.068,466.491z M312.809,476.009h-1.932v-7.172h1.932
				V476.009z"/>
			<path id="XMLID_2_" style="fill:#112129;" d="M316.032,471.39l2.701-2.554h2.368l-3.479,3.375l3.501,3.797h-2.376l-2.716-2.901
				v2.901H314.1v-10.658h1.932V471.39z"/>
		</g>
		<g>
			<path style="fill:#112129;" d="M184.412,475.944v-1.055c-0.527,0.718-1.391,1.23-2.387,1.23c-1.846,0-3.149-1.406-3.149-3.706
				c0-2.256,1.289-3.721,3.149-3.721c0.952,0,1.816,0.469,2.387,1.245v-3.765h1.099v9.77H184.412z M184.412,474.025v-3.208
				c-0.395-0.615-1.245-1.143-2.124-1.143c-1.421,0-2.27,1.172-2.27,2.739c0,1.567,0.85,2.724,2.27,2.724
				C183.168,475.138,184.017,474.64,184.412,474.025z"/>
			<path style="fill:#112129;" d="M186.932,472.399c0-2.051,1.465-3.706,3.486-3.706c2.139,0,3.398,1.67,3.398,3.794v0.279h-5.727
				c0.088,1.333,1.025,2.446,2.549,2.446c0.805,0,1.626-0.322,2.182-0.893l0.527,0.718c-0.703,0.703-1.655,1.084-2.812,1.084
				C188.44,476.12,186.932,474.611,186.932,472.399z M190.403,469.602c-1.509,0-2.256,1.274-2.314,2.358h4.643
				C192.718,470.905,192.015,469.602,190.403,469.602z"/>
			<path style="fill:#112129;" d="M194.607,475.006l0.571-0.791c0.469,0.542,1.362,1.011,2.329,1.011c1.084,0,1.67-0.513,1.67-1.216
				c0-1.714-4.38-0.659-4.38-3.281c0-1.098,0.952-2.036,2.636-2.036c1.201,0,2.051,0.454,2.622,1.025l-0.513,0.762
				c-0.424-0.513-1.201-0.894-2.109-0.894c-0.967,0-1.567,0.483-1.567,1.113c0,1.552,4.38,0.527,4.38,3.281
				c0,1.187-0.952,2.138-2.783,2.138C196.306,476.12,195.325,475.768,194.607,475.006z"/>
			<path style="fill:#112129;" d="M201.477,467.126c0-0.41,0.337-0.747,0.732-0.747c0.41,0,0.747,0.337,0.747,0.747
				c0,0.41-0.337,0.732-0.747,0.732C201.814,467.858,201.477,467.536,201.477,467.126z M201.667,475.944v-7.075h1.099v7.075H201.667
				z"/>
			<path style="fill:#112129;" d="M204.582,477.76l0.556-0.82c0.586,0.703,1.289,0.967,2.3,0.967c1.172,0,2.27-0.571,2.27-2.124
				v-1.011c-0.513,0.718-1.377,1.26-2.373,1.26c-1.845,0-3.149-1.377-3.149-3.662c0-2.27,1.289-3.676,3.149-3.676
				c0.952,0,1.802,0.469,2.373,1.245v-1.069h1.098v6.87c0,2.344-1.641,3.076-3.369,3.076
				C206.237,478.815,205.417,478.58,204.582,477.76z M209.709,473.908v-3.091c-0.381-0.615-1.23-1.143-2.109-1.143
				c-1.421,0-2.27,1.128-2.27,2.695c0,1.553,0.849,2.695,2.27,2.695C208.478,475.065,209.328,474.523,209.709,473.908z"/>
			<path style="fill:#112129;" d="M217.413,475.944v-4.629c0-1.245-0.63-1.641-1.582-1.641c-0.865,0-1.685,0.527-2.095,1.099v5.17
				h-1.099v-7.075h1.099v1.025c0.498-0.586,1.464-1.201,2.519-1.201c1.48,0,2.256,0.747,2.256,2.285v4.966H217.413z"/>
			<path style="fill:#112129;" d="M219.932,472.399c0-2.051,1.465-3.706,3.486-3.706c2.139,0,3.398,1.67,3.398,3.794v0.279h-5.727
				c0.088,1.333,1.025,2.446,2.549,2.446c0.806,0,1.626-0.322,2.183-0.893l0.527,0.718c-0.703,0.703-1.655,1.084-2.812,1.084
				C221.441,476.12,219.932,474.611,219.932,472.399z M223.404,469.602c-1.509,0-2.256,1.274-2.314,2.358h4.643
				C225.718,470.905,225.015,469.602,223.404,469.602z"/>
			<path style="fill:#112129;" d="M233.35,475.944v-1.055c-0.527,0.718-1.392,1.23-2.388,1.23c-1.846,0-3.149-1.406-3.149-3.706
				c0-2.256,1.289-3.721,3.149-3.721c0.952,0,1.817,0.469,2.388,1.245v-3.765h1.098v9.77H233.35z M233.35,474.025v-3.208
				c-0.396-0.615-1.245-1.143-2.124-1.143c-1.421,0-2.27,1.172-2.27,2.739c0,1.567,0.849,2.724,2.27,2.724
				C232.105,475.138,232.954,474.64,233.35,474.025z"/>
			<path style="fill:#112129;" d="M239.692,475.944v-9.77h1.098v3.765c0.572-0.776,1.421-1.245,2.388-1.245
				c1.845,0,3.149,1.465,3.149,3.721c0,2.299-1.304,3.706-3.149,3.706c-0.996,0-1.86-0.513-2.388-1.23v1.055H239.692z
				 M242.9,475.138c1.436,0,2.285-1.157,2.285-2.724c0-1.568-0.85-2.739-2.285-2.739c-0.864,0-1.728,0.527-2.109,1.143v3.208
				C241.171,474.64,242.036,475.138,242.9,475.138z"/>
			<path style="fill:#112129;" d="M247.528,477.716c0.161,0.073,0.425,0.117,0.601,0.117c0.483,0,0.805-0.161,1.055-0.747
				l0.469-1.069l-2.959-7.148h1.187l2.358,5.801l2.344-5.801h1.201l-3.545,8.51c-0.425,1.025-1.143,1.421-2.08,1.435
				c-0.234,0-0.601-0.044-0.805-0.103L247.528,477.716z"/>
		</g>
	</g>
</g>
</svg>
