<svg xmlns="http://www.w3.org/2000/svg" xmlns:xlink="http://www.w3.org/1999/xlink" viewBox="0 0 137 125"><defs><style>.cls-1{isolation:isolate;}.cls-2{mix-blend-mode:multiply;opacity:0.7;fill:url(#radial-gradient);}.cls-3{fill:url(#radial-gradient-2);}.cls-4{fill:url(#linear-gradient);}.cls-5{fill:url(#linear-gradient-2);}.cls-6{fill:url(#linear-gradient-3);}.cls-7{fill:url(#linear-gradient-4);}.cls-8{fill:url(#linear-gradient-5);}.cls-9{fill:url(#linear-gradient-6);}.cls-10{fill:url(#linear-gradient-7);}.cls-11{fill:url(#linear-gradient-8);}.cls-12{fill:url(#linear-gradient-9);}.cls-13{fill:url(#linear-gradient-10);}.cls-14{fill:url(#linear-gradient-11);}.cls-15{fill:url(#linear-gradient-12);}.cls-16{fill:url(#linear-gradient-13);}.cls-17{fill:url(#linear-gradient-14);}.cls-18{fill:url(#linear-gradient-15);}.cls-19{fill:url(#linear-gradient-16);}.cls-20{fill:url(#linear-gradient-17);}.cls-21{fill:url(#linear-gradient-18);}.cls-22{fill:#fdcf59;}.cls-23{fill:url(#linear-gradient-19);}.cls-24{fill:#ffdd7a;}.cls-25{fill:#f29017;}</style><radialGradient id="radial-gradient" cx="-323.95" cy="-14255.94" r="81.38" gradientTransform="translate(245.92 1689.03) scale(1.01 0.11)" gradientUnits="userSpaceOnUse"><stop offset="0" stop-color="#242424"/><stop offset="0.05" stop-color="#353535"/><stop offset="0.24" stop-color="#727272"/><stop offset="0.43" stop-color="#a4a4a4"/><stop offset="0.6" stop-color="#ccc"/><stop offset="0.76" stop-color="#e8e8e8"/><stop offset="0.9" stop-color="#f9f9f9"/><stop offset="1" stop-color="#fff"/></radialGradient><radialGradient id="radial-gradient-2" cx="-4.35" cy="-4325.12" r="12.56" gradientTransform="translate(81.75 2012.14) scale(3.35 0.44)" gradientUnits="userSpaceOnUse"><stop offset="0" stop-color="#adaab3"/><stop offset="0.27" stop-color="#cdcbd1"/><stop offset="0.56" stop-color="#e8e8ea"/><stop offset="0.81" stop-color="#f9f9fa"/><stop offset="1" stop-color="#fff"/></radialGradient><linearGradient id="linear-gradient" x1="687.1" y1="1747.33" x2="682.38" y2="1779.13" gradientTransform="translate(-977.38 -2572.78) scale(1.51)" gradientUnits="userSpaceOnUse"><stop offset="0" stop-color="#3502d9"/><stop offset="1" stop-color="#b800fe"/></linearGradient><linearGradient id="linear-gradient-2" x1="697.19" y1="1746.54" x2="702.1" y2="1763.26" xlink:href="#linear-gradient"/><linearGradient id="linear-gradient-3" x1="700.7" y1="1739.73" x2="704.52" y2="1734.1" xlink:href="#linear-gradient"/><linearGradient id="linear-gradient-4" x1="681.24" y1="1711.55" x2="676.87" y2="1715.01" xlink:href="#linear-gradient"/><linearGradient id="linear-gradient-5" x1="677.38" y1="1735.48" x2="682.47" y2="1739.12" xlink:href="#linear-gradient"/><linearGradient id="linear-gradient-6" x1="705.44" y1="1716.32" x2="701.62" y2="1711.95" xlink:href="#linear-gradient"/><linearGradient id="linear-gradient-7" x1="688.21" y1="1741.79" x2="695.12" y2="1741.79" xlink:href="#linear-gradient"/><linearGradient id="linear-gradient-8" x1="695.19" y1="1708.73" x2="688.64" y2="1708.19" xlink:href="#linear-gradient"/><linearGradient id="linear-gradient-9" x1="674.28" y1="1724.05" x2="674.82" y2="1728.59" xlink:href="#linear-gradient"/><linearGradient id="linear-gradient-10" x1="707.63" y1="1729" x2="707.63" y2="1722.46" xlink:href="#linear-gradient"/><linearGradient id="linear-gradient-11" x1="704.65" y1="1735.26" x2="707.74" y2="1728.72" xlink:href="#linear-gradient"/><linearGradient id="linear-gradient-12" x1="676.44" y1="1716.59" x2="674.63" y2="1721.32" xlink:href="#linear-gradient"/><linearGradient id="linear-gradient-13" x1="681.96" y1="1739.5" x2="689.23" y2="1742.23" xlink:href="#linear-gradient"/><linearGradient id="linear-gradient-14" x1="701.82" y1="1711.69" x2="695.64" y2="1708.97" xlink:href="#linear-gradient"/><linearGradient id="linear-gradient-15" x1="694.2" y1="1741.48" x2="700.01" y2="1740.03" xlink:href="#linear-gradient"/><linearGradient id="linear-gradient-16" x1="687.4" y1="1708.69" x2="682.31" y2="1710.51" xlink:href="#linear-gradient"/><linearGradient id="linear-gradient-17" x1="675.09" y1="1730.33" x2="677.27" y2="1735.24" xlink:href="#linear-gradient"/><linearGradient id="linear-gradient-18" x1="707.79" y1="1722.44" x2="705.24" y2="1715.71" xlink:href="#linear-gradient"/><linearGradient id="linear-gradient-19" x1="532.18" y1="2431.48" width="5" height="50.18" x2="550.21" y2="2431.48" gradientTransform="translate(-1087.52 -5156.78) scale(2.14)" xlink:href="#linear-gradient"/></defs><g class="cls-1"><g id="Layer_2" data-name="Layer 2"><path class="cls-2" d="M.56,116.6c0,5-36.85,9-82.32,9s-82.33-4-82.33-9,36.86-9,82.33-9S.56,111.65.56,116.6Z"/><path class="cls-3" d="M109.25,116.07c0,3-18.83,5.5-42.06,5.5s-42.07-2.46-42.07-5.5,18.83-5.5,42.07-5.5S109.25,113,109.25,116.07Z"/><polygon class="cls-4" points="53.2 64.08 46.05 107.56 57.06 104.26 68.06 110.87 77.15 64.08 53.2 64.08"/><polygon class="cls-5" points="65.86 61.33 75.77 102.61 83.06 93.67 96.41 93.53 82.1 59.13 65.86 61.33"/><path class="cls-6" d="M85.65,51.25,96,58.18a13.09,13.09,0,0,1-10.4,7.29L78.45,56.7S87,52.16,85.65,51.25Z"/><path class="cls-7" d="M52.81,29.31,42.43,22.37a13.09,13.09,0,0,1,10.4-7.28L60,23.86S51.45,28.4,52.81,29.31Z"/><path class="cls-8" d="M58.26,56.7,51.32,67.08A13.09,13.09,0,0,1,44,56.68l8.77-7.18S57.35,58.06,58.26,56.7Z"/><path class="cls-9" d="M80.2,23.86l6.94-10.38a13.09,13.09,0,0,1,7.28,10.4l-8.77,7.18S81.11,22.5,80.2,23.86Z"/><path class="cls-10" d="M73.08,59.64l2.44,12.25A13.11,13.11,0,0,1,63,69.69l1.13-11.28S73.4,61.25,73.08,59.64Z"/><path class="cls-11" d="M65.38,20.91,62.94,8.67a13.11,13.11,0,0,1,12.51,2.2L74.32,22.15S65.06,19.3,65.38,20.91Z"/><path class="cls-12" d="M49.86,44.13,37.62,46.57a13.11,13.11,0,0,1,2.2-12.51L51.1,35.18S48.25,44.45,49.86,44.13Z"/><path class="cls-13" d="M88.6,36.43,100.84,34a13.11,13.11,0,0,1-2.2,12.51L87.36,45.37S90.21,36.11,88.6,36.43Z"/><path class="cls-14" d="M88.6,44.13l12.25,2.44A13.12,13.12,0,0,1,94,57.28L84,51.92S90.21,44.45,88.6,44.13Z"/><path class="cls-15" d="M49.86,36.43,37.62,34a13.08,13.08,0,0,1,6.82-10.71l10,5.36S48.25,36.11,49.86,36.43Z"/><path class="cls-16" d="M65.38,59.64,62.94,71.89a13.09,13.09,0,0,1-10.71-6.82l5.36-10S65.06,61.25,65.38,59.64Z"/><path class="cls-17" d="M73.08,20.91,75.52,8.67a13.09,13.09,0,0,1,10.71,6.82l-5.36,10S73.4,19.3,73.08,20.91Z"/><path class="cls-18" d="M80.2,56.7l6.94,10.38a13.11,13.11,0,0,1-12.4,2.75L71.47,59S81.11,58.06,80.2,56.7Z"/><path class="cls-19" d="M58.26,23.86,51.32,13.48a13.1,13.1,0,0,1,12.4-2.75L67,21.58S57.35,22.49,58.26,23.86Z"/><path class="cls-20" d="M52.81,51.25,42.43,58.18a13.1,13.1,0,0,1-2.75-12.39l10.85-3.28S51.45,52.16,52.81,51.25Z"/><path class="cls-21" d="M85.65,29.31,96,22.37a13.09,13.09,0,0,1,2.75,12.4L87.93,38S87,28.4,85.65,29.31Z"/><path class="cls-22" d="M91.52,40.28A22.29,22.29,0,1,1,69.23,18,22.29,22.29,0,0,1,91.52,40.28Z"/><path class="cls-23" d="M88.5,40.28A19.27,19.27,0,1,1,69.23,21,19.26,19.26,0,0,1,88.5,40.28Z"/><path class="cls-22" d="M61.74,50.06l.18,0a2.06,2.06,0,0,0,.46-.15l5.18-2.62.18-.08.19,0a1.2,1.2,0,0,1,.38,0,1.64,1.64,0,0,1,.75.19l5.1,2.79a1.62,1.62,0,0,0,2.37-1.67L76.3,47a18.54,18.54,0,0,1-2.85-.52,13.77,13.77,0,0,1-6.59-3.9A13.2,13.2,0,0,1,63.52,36a12,12,0,0,1-.22-2.61h0l-5.76.75a1.61,1.61,0,0,0-1.41,1.71,1.57,1.57,0,0,0,.09.43,1.5,1.5,0,0,0,.38.59L60.69,41a1.58,1.58,0,0,1,.44,1.43l-1.07,5.71,0,.24a1.54,1.54,0,0,0,.08.57,2.72,2.72,0,0,0,.11.25l.07.12a1.54,1.54,0,0,0,.48.47,1.71,1.71,0,0,0,.23.13l.26.09.21,0h.27Z"/><path class="cls-24" d="M80.85,36A1.6,1.6,0,0,0,79.5,34.5l-5.69-.92h0a1.61,1.61,0,0,1-1.21-.9l-2.18-4.61-.3-.64a1.62,1.62,0,0,0-2.9-.05l-2.65,5.17a1.61,1.61,0,0,1-1.23.86A12,12,0,0,0,63.52,36a13.2,13.2,0,0,0,3.34,6.52,13.77,13.77,0,0,0,6.59,3.9A18.54,18.54,0,0,0,76.3,47l-.66-4.27a1.65,1.65,0,0,1,.48-1.43l4.23-4A1.57,1.57,0,0,0,80.85,36Z"/><path class="cls-25" d="M81.89,38.81A1.61,1.61,0,0,0,81,36.05l-.19,0a1.57,1.57,0,0,1-.5,1.26l-4.23,4a1.65,1.65,0,0,0-.48,1.43l.89,5.73a1.62,1.62,0,0,1-2.37,1.67l-5.1-2.79a1.64,1.64,0,0,0-.75-.19,1.2,1.2,0,0,0-.38,0l-.19,0-.18.08-5.18,2.62a2.06,2.06,0,0,1-.46.15l-.18,0h-.16a1.66,1.66,0,0,0,.17.67l0,.05a1.07,1.07,0,0,0,.15.22l0,0v0l0,0a.75.75,0,0,0,.16.15l0,0a.55.55,0,0,0,.14.09l.09.06h0l.05,0,.08,0h0l.08,0,.18.05h.19a1.63,1.63,0,0,0,.82-.18l5.18-2.62.09,0,.19-.06a1.59,1.59,0,0,1,.38-.07H70a1.58,1.58,0,0,1,.42.09l.09,0,.14.07,5.09,2.78a1.58,1.58,0,0,0,.65.2h.22a1,1,0,0,0,.24,0l.14,0,.07,0,.13,0,0,0a1.46,1.46,0,0,0,.33-.22l0,0,0,0,0,0,.12-.15,0,0a1.4,1.4,0,0,0,.22-.44l0-.06v-.08s0-.06,0-.08a1.1,1.1,0,0,0,0-.18v0a1.51,1.51,0,0,0,0-.3l-.84-5.44h0l0-.3a1.61,1.61,0,0,1,.49-1.42Z"/></g></g></svg>