<svg xmlns="http://www.w3.org/2000/svg" xmlns:xlink="http://www.w3.org/1999/xlink" viewBox="0 0 88 71"><defs><style>.a{fill:url(#a);}.b{fill:url(#b);}.c{fill:url(#c);}.d{fill:url(#d);}.e{fill:url(#e);}.f{fill:url(#f);}.g{fill:url(#g);}.h{fill:url(#h);}.i{fill:url(#i);}.j{fill:url(#j);}</style><linearGradient id="a" x1="6.48" y1="23.49" x2="81.52" y2="23.49" gradientUnits="userSpaceOnUse"><stop offset="0.04" stop-color="#af7a12"/><stop offset="0.28" stop-color="#b68015"/><stop offset="0.61" stop-color="#f0b641"/><stop offset="0.97" stop-color="#f6ba3b"/></linearGradient><linearGradient id="b" x1="4.99" y1="20.9" x2="82.09" y2="59.02" gradientUnits="userSpaceOnUse"><stop offset="0.04" stop-color="#dead2f"/><stop offset="0.28" stop-color="#e0af30"/><stop offset="0.55" stop-color="#d3a430"/><stop offset="0.94" stop-color="#8f6c10"/></linearGradient><linearGradient id="c" x1="39.99" y1="26.43" x2="49.2" y2="32.95" gradientUnits="userSpaceOnUse"><stop offset="0" stop-color="#ff725e"/><stop offset="0.33" stop-color="#e34219"/><stop offset="0.58" stop-color="#c23d13"/><stop offset="0.85" stop-color="#8d3609"/></linearGradient><linearGradient id="d" x1="40.41" y1="3.72" x2="48.65" y2="9.57" xlink:href="#c"/><linearGradient id="e" x1="13.37" y1="5.69" x2="21.71" y2="11.61" xlink:href="#c"/><linearGradient id="f" x1="66.38" y1="5.7" x2="74.7" y2="11.6" xlink:href="#c"/><linearGradient id="g" x1="68.99" y1="21.43" x2="78.2" y2="27.95" xlink:href="#c"/><linearGradient id="h" x1="12.37" y1="37.54" x2="21.58" y2="44.07" gradientTransform="translate(5.9 -18.4) rotate(10.1)" xlink:href="#c"/><linearGradient id="i" x1="2.11" y1="31.24" x2="11.32" y2="37.77" gradientTransform="translate(5.9 -18.4) rotate(10.1)" xlink:href="#c"/><linearGradient id="j" x1="76.94" y1="17.93" x2="86.14" y2="24.46" gradientTransform="translate(5.9 -18.4) rotate(10.1)" xlink:href="#c"/></defs><title>image1</title><path class="a" d="M71.5,5.7,59.3,19.9a2,2,0,0,1-2.9.1L44,6.1,31.6,20a2,2,0,0,1-2.9-.1L16.5,5.7c-3.3,11.9-6.7,23.7-10,35.6h75Z"/><path class="b" d="M79.9,21c-.6,5.7-1.3,11.5-1.9,17.3-.6-3.2-1.3-6.4-1.9-9.6a2.8,2.8,0,0,0-5.3-.7L61.5,45.7a2.8,2.8,0,0,1-4.7.4L44,28.8,31.2,46.1a2.8,2.8,0,0,1-4.7-.4L17.3,28a2.9,2.9,0,0,0-5.4.7c-.6,3.2-1.3,6.4-1.9,9.6C9.3,32.2,8.7,26.1,8,20l-4,.3c.3,9.6.7,19.3,1,29v6.1a6.5,6.5,0,0,0,3.7,6,78.4,78.4,0,0,0,33.8,8.4,79.3,79.3,0,0,0,36.8-8.4,6.5,6.5,0,0,0,3.7-6V49.3c.3-9.4.7-18.7,1-28Z"/><circle class="c" cx="44" cy="29.3" r="5.6"/><circle class="d" cx="44" cy="6.3" r="5.1"/><circle class="e" cx="17" cy="8.3" r="5.1"/><circle class="f" cx="70" cy="8.3" r="5.1"/><circle class="g" cx="73" cy="24.3" r="5.6"/><circle class="h" cx="15" cy="24.3" r="5.6"/><circle class="i" cx="6" cy="16.3" r="5.6"/><circle class="j" cx="82" cy="16.3" r="5.6"/></svg>