<svg xmlns="http://www.w3.org/2000/svg" xmlns:xlink="http://www.w3.org/1999/xlink" viewBox="0 0 123 282"><defs><style>.a{fill:url(#a);}.b{fill:url(#b);}.c{fill:url(#c);}.d{fill:url(#d);}.e{fill:url(#e);}.f{fill:url(#f);}</style><linearGradient id="a" x1="50.78" y1="280.01" x2="72.36" y2="-2.41" gradientUnits="userSpaceOnUse"><stop offset="0" stop-color="#626365"/><stop offset="0.93" stop-color="#767676"/><stop offset="0.96" stop-color="#adaeb2"/><stop offset="0.97" stop-color="gray"/></linearGradient><linearGradient id="b" x1="2.48" y1="141" x2="120.52" y2="141" gradientUnits="userSpaceOnUse"><stop offset="0" stop-color="#bec0bd" stop-opacity="0"/><stop offset="0.87" stop-color="silver" stop-opacity="0.6"/><stop offset="0.92" stop-color="#6b6b6b"/></linearGradient><linearGradient id="c" x1="113.55" y1="82.78" x2="121.91" y2="82.78" gradientUnits="userSpaceOnUse"><stop offset="0" stop-color="#a4a4a4"/><stop offset="0.42" stop-color="#626262"/></linearGradient><linearGradient id="d" x1="114.15" y1="25.57" x2="97.44" y2="13.68" gradientTransform="matrix(1, 0.03, -0.03, 1, 0.64, -3.1)" gradientUnits="userSpaceOnUse"><stop offset="0" stop-color="#6b6b6b" stop-opacity="0"/><stop offset="0.19" stop-color="#ababab" stop-opacity="0.24"/><stop offset="0.46" stop-color="#dfdfdf" stop-opacity="0.7"/><stop offset="0.91" stop-color="#b5b5b7" stop-opacity="0"/></linearGradient><linearGradient id="e" x1="-26.85" y1="193.64" x2="144.51" y2="88.93" gradientUnits="userSpaceOnUse"><stop offset="0.04" stop-color="#8aa8fe"/><stop offset="0.17" stop-color="#8dc1fa"/><stop offset="0.54" stop-color="#aabdf8"/><stop offset="1" stop-color="#c0e6fd"/></linearGradient><linearGradient id="f" x1="4.66" y1="142.7" x2="140.96" y2="142.7" gradientUnits="userSpaceOnUse"><stop offset="0" stop-color="#b3b4b9"/><stop offset="0.55" stop-color="#b0b1b5"/><stop offset="0.94" stop-color="#5c5c5c"/></linearGradient></defs><title>phone</title><path class="a" d="M95.4,280.3,23,267.4A23.8,23.8,0,0,1,3.3,244.1q-.4-112-.8-223.9A18.8,18.8,0,0,1,22.7,1.4L99.1,7.2a23.1,23.1,0,0,1,21.4,23.1V259.2A21.4,21.4,0,0,1,95.4,280.3Z"/><path class="b" d="M95.4,280.3,23,267.4A23.8,23.8,0,0,1,3.3,244.1q-.4-112-.8-223.9A18.8,18.8,0,0,1,22.7,1.4L99.1,7.2a23.1,23.1,0,0,1,21.4,23.1V259.2A21.4,21.4,0,0,1,95.4,280.3Z"/><rect class="c" x="113.6" y="57.7" width="5" height="50.18" rx="2.5"/><path class="d" d="M98.1,11.1a16.6,16.6,0,0,1,7,1.1,18.2,18.2,0,0,1,6.1,4.1,15.3,15.3,0,0,1,3.7,6.5A15,15,0,0,1,113.5,33a23.5,23.5,0,0,0-4-13A23.9,23.9,0,0,0,98.1,11.1Z"/><path class="e" d="M91.4,276.1,25.6,264A24.1,24.1,0,0,1,5.8,240.4Q5.7,131.7,5.4,22.9a13.7,13.7,0,0,1,15-13.7L92,15.5a15.9,15.9,0,0,1,14.6,15.9q.5,115.6.8,231.3A13.5,13.5,0,0,1,91.4,276.1Z"/><path class="f" d="M93.9,277a11.4,11.4,0,0,1-2.6-.2l-65.9-12A24.9,24.9,0,0,1,5.1,240.4L4.7,22.9A14.6,14.6,0,0,1,20.5,8.4l71.6,6.3a16.8,16.8,0,0,1,15.3,16.7l.8,231.3a14.5,14.5,0,0,1-5.1,11A14.2,14.2,0,0,1,93.9,277ZM19.2,9.9a12.9,12.9,0,0,0-13,13l.4,217.5a23.3,23.3,0,0,0,19.1,22.9l65.9,12a12.6,12.6,0,0,0,10.5-2.8,12.7,12.7,0,0,0,4.6-9.8l-.8-231.3A15.2,15.2,0,0,0,92,16.2L20.4,9.9Z"/></svg>