<svg xmlns="http://www.w3.org/2000/svg" xmlns:xlink="http://www.w3.org/1999/xlink" viewBox="0 0 137 125"><defs><style>.cls-1{isolation:isolate;}.cls-2{fill:url(#radial-gradient);}.cls-3{fill:url(#linear-gradient);}.cls-4{fill:url(#linear-gradient-2);}.cls-5{fill:url(#New_Gradient_Swatch_2);}.cls-11,.cls-13,.cls-19,.cls-6,.cls-8{mix-blend-mode:multiply;}.cls-6{fill:url(#linear-gradient-3);}.cls-7{fill:url(#New_Gradient_Swatch_2-2);}.cls-8{fill:url(#linear-gradient-4);}.cls-9{fill:url(#linear-gradient-5);}.cls-10{fill:url(#New_Gradient_Swatch_2-3);}.cls-11{fill:url(#linear-gradient-6);}.cls-12{fill:url(#New_Gradient_Swatch_2-4);}.cls-13{fill:url(#linear-gradient-7);}.cls-14{fill:url(#linear-gradient-8);}.cls-15,.cls-16,.cls-17,.cls-18{mix-blend-mode:overlay;}.cls-15,.cls-16{opacity:0.5;}.cls-15{fill:url(#radial-gradient-2);}.cls-16{fill:url(#radial-gradient-3);}.cls-17,.cls-18{opacity:0.6;}.cls-17{fill:url(#radial-gradient-4);}.cls-18{fill:url(#radial-gradient-5);}.cls-19{fill:url(#linear-gradient-9);}.cls-20{fill:url(#linear-gradient-10);}.cls-21{fill:url(#linear-gradient-11);}.cls-22{fill:url(#linear-gradient-12);}.cls-23{fill:url(#linear-gradient-13);}.cls-24{fill:url(#linear-gradient-14);}.cls-25{fill:url(#linear-gradient-15);}.cls-26{fill:url(#linear-gradient-16);}.cls-27{fill:url(#linear-gradient-17);}.cls-28{fill:url(#linear-gradient-18);}.cls-29{fill:url(#linear-gradient-19);}.cls-30{fill:url(#linear-gradient-20);}.cls-31{fill:url(#New_Gradient_Swatch_2-5);}.cls-32{fill:url(#New_Gradient_Swatch_2-6);}.cls-33{fill:#760303;}.cls-34{fill:#cd1a19;}.cls-35{fill:#fff;}.cls-36{fill:#3f4451;}.cls-37{fill:url(#linear-gradient-21);}.cls-38{fill:url(#Áåçûìÿííûé_ãðàäèåíò_43);}.cls-39{fill:url(#Áåçûìÿííûé_ãðàäèåíò_47);}.cls-40{fill:url(#Áåçûìÿííûé_ãðàäèåíò_43-2);}.cls-41{fill:url(#Áåçûìÿííûé_ãðàäèåíò_47-2);}.cls-42{fill:url(#Áåçûìÿííûé_ãðàäèåíò_43-3);}.cls-43{fill:url(#Áåçûìÿííûé_ãðàäèåíò_47-3);}.cls-44{fill:#f2f2f2;}</style><radialGradient id="radial-gradient" cx="326.44" cy="-4337.59" r="25.08" gradientTransform="translate(-1025.01 2012.14) scale(3.35 0.44)" gradientUnits="userSpaceOnUse"><stop offset="0" stop-color="#adaab3"/><stop offset="0.27" stop-color="#cdcbd1"/><stop offset="0.56" stop-color="#e8e8ea"/><stop offset="0.81" stop-color="#f9f9fa"/><stop offset="1" stop-color="#fff"/></radialGradient><linearGradient id="linear-gradient" x1="-2079.87" y1="578.82" x2="-2083.79" y2="577.15" gradientTransform="translate(2217.64 306.89) rotate(22.17)" gradientUnits="userSpaceOnUse"><stop offset="0" stop-color="#505768"/><stop offset="0.51" stop-color="#646e81"/><stop offset="1" stop-color="#505768"/></linearGradient><linearGradient id="linear-gradient-2" x1="-2044.8" y1="578.63" x2="-2041.23" y2="577.34" xlink:href="#linear-gradient"/><linearGradient id="New_Gradient_Swatch_2" x1="3403.82" y1="589.4" x2="3403.82" y2="613.05" gradientTransform="matrix(-0.93, -0.38, -0.38, 0.93, 3472.21, 818.32)" gradientUnits="userSpaceOnUse"><stop offset="0" stop-color="#2e3039"/><stop offset="0.32" stop-color="#464c5a"/><stop offset="0.5" stop-color="#505768"/><stop offset="1" stop-color="#2e3039"/></linearGradient><linearGradient id="linear-gradient-3" x1="3401.74" y1="601.68" x2="3405.35" y2="601.42" gradientTransform="matrix(-0.93, -0.38, -0.38, 0.93, 3472.21, 818.32)" gradientUnits="userSpaceOnUse"><stop offset="0" stop-color="#2e3039"/><stop offset="0.19" stop-color="#62292f"/><stop offset="0.42" stop-color="#9c2123"/><stop offset="0.59" stop-color="#bf1c1c"/><stop offset="0.68" stop-color="#cd1a19"/></linearGradient><linearGradient id="New_Gradient_Swatch_2-2" x1="3397.08" y1="589.22" x2="3397.08" y2="612.86" xlink:href="#New_Gradient_Swatch_2"/><linearGradient id="linear-gradient-4" x1="3399.36" y1="601.83" x2="3395.94" y2="602.2" gradientTransform="matrix(-0.93, -0.38, -0.38, 0.93, 3472.21, 818.32)" gradientUnits="userSpaceOnUse"><stop offset="0" stop-color="#2e3039"/><stop offset="0.08" stop-color="#33353f" stop-opacity="0.86"/><stop offset="0.47" stop-color="#484e5d" stop-opacity="0.24"/><stop offset="0.68" stop-color="#505768" stop-opacity="0"/></linearGradient><linearGradient id="linear-gradient-5" x1="3400.14" y1="589.22" x2="3400.14" y2="612.85" gradientTransform="matrix(1, -0.06, -0.06, -1, -3258.54, 909.33)" xlink:href="#linear-gradient"/><linearGradient id="New_Gradient_Swatch_2-3" x1="-2075.67" y1="589.73" x2="-2075.67" y2="613.34" gradientTransform="matrix(-1, -0.06, 0.06, -1, -2041.28, 549.83)" xlink:href="#New_Gradient_Swatch_2"/><linearGradient id="linear-gradient-6" x1="-2077.74" y1="601.97" x2="-2074.12" y2="601.71" gradientTransform="matrix(-1, -0.06, 0.06, -1, -2041.28, 549.83)" xlink:href="#linear-gradient-3"/><linearGradient id="New_Gradient_Swatch_2-4" x1="-2082.26" y1="589.5" x2="-2082.26" y2="613.14" gradientTransform="translate(2217.64 306.89) rotate(22.17)" xlink:href="#New_Gradient_Swatch_2"/><linearGradient id="linear-gradient-7" x1="-2079.99" y1="602.11" x2="-2083.41" y2="602.49" gradientTransform="translate(2217.64 306.89) rotate(22.17)" xlink:href="#linear-gradient-4"/><linearGradient id="linear-gradient-8" x1="-2079.2" y1="589.5" x2="-2079.2" y2="613.13" gradientTransform="translate(2178.25 -388.77) rotate(3.64)" xlink:href="#linear-gradient"/><radialGradient id="radial-gradient-2" cx="-5255.77" cy="21125" r="9.56" gradientTransform="matrix(-1, 0, 0, -0.18, -5191.16, 3795.66)" gradientUnits="userSpaceOnUse"><stop offset="0" stop-color="#fff" stop-opacity="0.9"/><stop offset="1" stop-color="#768094" stop-opacity="0"/></radialGradient><radialGradient id="radial-gradient-3" cx="-4893.03" cy="25294.77" r="9.56" gradientTransform="matrix(-1, 0, 0, -0.18, -4798.34, 4544.06)" xlink:href="#radial-gradient-2"/><radialGradient id="radial-gradient-4" cx="-5659.4" cy="15922.59" r="4.85" gradientTransform="matrix(-0.11, 0.99, -0.12, -0.01, 1402.9, 5898.85)" xlink:href="#radial-gradient-2"/><radialGradient id="radial-gradient-5" cx="-4110.15" cy="44745.94" r="4.85" gradientTransform="matrix(-0.63, 0.78, -0.09, -0.08, 1620.06, 6614.49)" xlink:href="#radial-gradient-2"/><linearGradient id="linear-gradient-9" x1="85.27" y1="47.24" x2="106.82" y2="63.68" gradientTransform="matrix(1, 0, 0, 1, 0, 0)" xlink:href="#linear-gradient-3"/><linearGradient id="linear-gradient-10" x1="78.48" y1="85.41" x2="84.45" y2="85.41" gradientTransform="matrix(1, 0, 0, 1, 0, 0)" xlink:href="#linear-gradient"/><linearGradient id="linear-gradient-11" x1="76.11" y1="84.08" x2="80.46" y2="84.08" gradientTransform="matrix(1, 0, 0, 1, 0, 0)" xlink:href="#linear-gradient"/><linearGradient id="linear-gradient-12" x1="82.46" y1="86.73" x2="86.82" y2="86.73" gradientTransform="matrix(1, 0, 0, 1, 0, 0)" xlink:href="#linear-gradient"/><linearGradient id="linear-gradient-13" x1="78.23" y1="84.72" x2="81.54" y2="84.72" gradientTransform="matrix(1, 0, 0, 1, 0, 0)" xlink:href="#linear-gradient"/><linearGradient id="linear-gradient-14" x1="81.41" y1="86.07" x2="84.69" y2="86.07" gradientTransform="matrix(1, 0, 0, 1, 0, 0)" xlink:href="#linear-gradient"/><linearGradient id="linear-gradient-15" x1="84.97" y1="87.43" x2="87.45" y2="87.43" gradientTransform="matrix(1, 0, 0, 1, 0, 0)" xlink:href="#linear-gradient"/><linearGradient id="linear-gradient-16" x1="75.48" y1="83.37" x2="77.97" y2="83.37" gradientTransform="matrix(1, 0, 0, 1, 0, 0)" xlink:href="#linear-gradient"/><linearGradient id="linear-gradient-17" x1="74.31" y1="82.69" x2="75.99" y2="82.69" gradientTransform="matrix(1, 0, 0, 1, 0, 0)" xlink:href="#linear-gradient"/><linearGradient id="linear-gradient-18" x1="86.94" y1="88.11" x2="88.63" y2="88.11" gradientTransform="matrix(1, 0, 0, 1, 0, 0)" xlink:href="#linear-gradient"/><linearGradient id="linear-gradient-19" x1="72.86" y1="81.99" x2="74.27" y2="81.99" gradientTransform="matrix(1, 0, 0, 1, 0, 0)" xlink:href="#linear-gradient"/><linearGradient id="linear-gradient-20" x1="88.66" y1="88.79" x2="90.07" y2="88.79" gradientTransform="matrix(1, 0, 0, 1, 0, 0)" xlink:href="#linear-gradient"/><linearGradient id="New_Gradient_Swatch_2-5" x1="-2083.55" y1="595.82" x2="-2089.01" y2="593.49" gradientTransform="translate(2217.64 306.89) rotate(22.17)" xlink:href="#New_Gradient_Swatch_2"/><linearGradient id="New_Gradient_Swatch_2-6" x1="3624.89" y1="595.54" x2="3619.43" y2="593.21" gradientTransform="matrix(-0.93, -0.38, -0.38, 0.93, 3684.37, 904.76)" xlink:href="#New_Gradient_Swatch_2"/><linearGradient id="linear-gradient-21" x1="1466.7" y1="510.17" x2="1466.7" y2="477.01" gradientTransform="translate(-1414.52 -441.83)" xlink:href="#linear-gradient"/><radialGradient id="Áåçûìÿííûé_ãðàäèåíò_43" cx="1447.12" cy="472.85" r="0.85" gradientTransform="matrix(0.92, -0.4, 0.4, 0.92, -1489.52, 185.86)" gradientUnits="userSpaceOnUse"><stop offset="0" stop-color="#fff"/><stop offset="1" stop-color="#656565"/></radialGradient><linearGradient id="Áåçûìÿííûé_ãðàäèåíò_47" x1="1447.11" y1="472.98" x2="1447.11" y2="472.75" gradientTransform="matrix(1, 0, 0, 1, -1421.17, -432.27)" gradientUnits="userSpaceOnUse"><stop offset="0" stop-color="#a4a4a4"/><stop offset="1"/></linearGradient><radialGradient id="Áåçûìÿííûé_ãðàäèåíò_43-2" cx="1446.01" cy="477.01" r="0.85" xlink:href="#Áåçûìÿííûé_ãðàäèåíò_43"/><linearGradient id="Áåçûìÿííûé_ãðàäèåíò_47-2" x1="3335.35" y1="2833.86" x2="3335.35" y2="2833.63" gradientTransform="translate(-3308.8 -2789.16)" xlink:href="#Áåçûìÿííûé_ãðàäèåíò_47"/><radialGradient id="Áåçûìÿííûé_ãðàäèåíò_43-3" cx="1451.33" cy="477.01" r="0.85" xlink:href="#Áåçûìÿííûé_ãðàäèåíò_43"/><linearGradient id="Áåçûìÿííûé_ãðàäèåíò_47-3" x1="-1920.9" y1="1138.57" x2="-1920.9" y2="1138.33" gradientTransform="translate(1952.5 -1095.73)" xlink:href="#Áåçûìÿííûé_ãðàäèåíò_47"/></defs><g class="cls-1"><g id="Layer_2" data-name="Layer 2"><path class="cls-2" d="M152.51,110.23c0,6.07-37.61,11-84,11s-84-4.92-84-11,37.61-11,84-11S152.51,104.16,152.51,110.23Z"/><path class="cls-3" d="M65.76,67.58l-2.34.07C63.8,66.89,74,48,83,49l-.17,1.48c-4.08-.44-8.46,4-11.42,7.9A55.67,55.67,0,0,0,65.76,67.58Z"/><path class="cls-4" d="M104.6,83.57a76,76,0,0,0,2.22-10.8c.58-4.81.58-11.08-2.65-13.63l.92-1.17c7.12,5.59,1.08,25.77.82,26.57Z"/><path class="cls-5" d="M89.46,102.46l-1.28-.62a2.27,2.27,0,0,1-1.05-3l8.24-17a2.26,2.26,0,0,1,3-1.05l1.28.62Z"/><path class="cls-6" d="M89.46,102.46l-1.28-.62a2.27,2.27,0,0,1-1.05-3l8.24-17a2.26,2.26,0,0,1,3-1.05l1.28.62Z"/><path class="cls-7" d="M103.73,87.21s-1.76,8.68-7.25,15l-2.64-1.28,7.25-15Z"/><path class="cls-8" d="M103.73,87.21s-1.76,8.68-7.25,15l-2.64-1.28,7.25-15Z"/><path class="cls-9" d="M97.38,80.53h1a0,0,0,0,1,0,0v24.32a0,0,0,0,1,0,0h-1a3,3,0,0,1-3-3V83.49A3,3,0,0,1,97.38,80.53Z" transform="translate(142.83 218.12) rotate(-154.19)"/><path class="cls-10" d="M69.28,69.41h.94a0,0,0,0,1,0,0V92.84a0,0,0,0,1,0,0h-.94a2.75,2.75,0,0,1-2.75-2.75V72.15A2.75,2.75,0,0,1,69.28,69.41Z" transform="translate(107.44 179.77) rotate(-161.48)"/><path class="cls-11" d="M69.28,69.41h.94a0,0,0,0,1,0,0V92.84a0,0,0,0,1,0,0h-.94a2.75,2.75,0,0,1-2.75-2.75V72.15A2.75,2.75,0,0,1,69.28,69.41Z" transform="translate(107.44 179.77) rotate(-161.48)"/><path class="cls-12" d="M63.48,70.81s-4.8,7.44-5.29,15.79l2.79.93,5.29-15.79Z"/><path class="cls-13" d="M63.48,70.81s-4.8,7.44-5.29,15.79l2.79.93,5.29-15.79Z"/><path class="cls-14" d="M65.86,67.69h1a0,0,0,0,1,0,0V92a0,0,0,0,1,0,0h-1a3,3,0,0,1-3-3V70.65A3,3,0,0,1,65.86,67.69Z" transform="translate(28.73 -16.48) rotate(18.52)"/><ellipse class="cls-15" cx="64.93" cy="79.44" rx="9.56" ry="1.68" transform="translate(-31.02 115.77) rotate(-71.48)"/><ellipse class="cls-16" cx="96.55" cy="92.41" rx="9.56" ry="1.68" transform="translate(-28.68 139.09) rotate(-64.19)"/><path class="cls-17" d="M107.18,76.37c-.32,0-.35-2.22-.06-4.88s.76-4.79,1.08-4.76.35,2.22.07,4.88S107.5,76.41,107.18,76.37Z"/><path class="cls-18" d="M68.26,61.05c-.25-.2.92-2,2.61-4.13s3.26-3.6,3.51-3.39-.92,2-2.61,4.12S68.51,61.25,68.26,61.05Z"/><path class="cls-19" d="M83,49s14-.8,22.14,9l-.92,1.17S89,49.91,82.78,50.43Z"/><path class="cls-20" d="M81,85.22c.8-1.84,1.59-3.69,2.38-5.53.06-.14.09-.33.2-.39a.87.87,0,0,1,.62-.16c.14,0,.22.34.27.53s-.08.25-.13.38q-2.38,5.57-4.78,11.15c-.05.12-.09.29-.19.34s-.45.2-.59.13-.23-.34-.28-.54.08-.25.14-.37L81,85.22Z"/><path class="cls-21" d="M78.76,84.27c-.51,1.2-1,2.39-1.54,3.59a2.37,2.37,0,0,1-.17.36.48.48,0,0,1-.65.23.48.48,0,0,1-.25-.65l.1-.24c1.06-2.47,2.11-4.93,3.17-7.39,0-.12.08-.3.18-.35a.9.9,0,0,1,.62-.13c.13,0,.21.34.24.53s-.09.28-.15.42C79.8,81.85,79.28,83.06,78.76,84.27Z"/><path class="cls-22" d="M85.1,86.94l-1.59,3.71c-.06.13-.09.3-.19.35s-.44.2-.59.13-.23-.34-.26-.54.09-.27.15-.41q1.55-3.63,3.11-7.26a2.41,2.41,0,0,1,.15-.33.45.45,0,0,1,.63-.24.48.48,0,0,1,.28.63,2.52,2.52,0,0,1-.12.29C86.15,84.5,85.62,85.72,85.1,86.94Z"/><path class="cls-23" d="M79.43,84.5c.32-.77.65-1.53,1-2.3,0-.1.08-.2.13-.29.14-.29.35-.46.68-.33a.47.47,0,0,1,.26.7C80.74,84,80,85.8,79.23,87.55a.51.51,0,1,1-.93-.41C78.67,86.26,79.05,85.38,79.43,84.5Z"/><path class="cls-24" d="M82.57,85.9c.36-.83.71-1.67,1.07-2.51.2-.44.49-.62.78-.45s.31.53.16.86c-.72,1.66-1.42,3.33-2.15,5a.87.87,0,0,1-.52.46c-.39.08-.62-.34-.43-.78C81.83,87.6,82.2,86.75,82.57,85.9Z"/><path class="cls-25" d="M86.68,87.61c-.24.55-.48,1.1-.71,1.65-.13.32-.36.51-.69.37s-.38-.42-.24-.75c.48-1.1.95-2.19,1.42-3.29.13-.33.37-.5.7-.35s.35.45.21.77C87.13,86.54,86.91,87.08,86.68,87.61Z"/><path class="cls-26" d="M77.19,83.56c-.24.55-.48,1.1-.71,1.65-.14.33-.37.5-.7.35s-.35-.44-.21-.76L77,81.55c.13-.32.35-.52.69-.37s.37.45.22.78l-.69,1.6Z"/><path class="cls-27" d="M74.7,82.48c.11-.26.21-.52.34-.78a.49.49,0,0,1,.9.39c-.21.54-.44,1.08-.69,1.61a.44.44,0,0,1-.63.23.45.45,0,0,1-.27-.62c.11-.28.23-.55.35-.83Z"/><path class="cls-28" d="M88.25,88.29c-.11.26-.22.52-.34.78a.49.49,0,1,1-.91-.38c.22-.53.44-1,.67-1.56a.46.46,0,0,1,.66-.26.45.45,0,0,1,.25.63C88.48,87.77,88.36,88,88.25,88.29Z"/><path class="cls-29" d="M74,82.22c-.07.17-.1.38-.22.48a.85.85,0,0,1-.59.24.41.41,0,0,1-.31-.59,9.38,9.38,0,0,1,.44-1,.45.45,0,0,1,.64-.23.48.48,0,0,1,.26.64c-.06.17-.14.33-.21.49Z"/><path class="cls-30" d="M89.82,89l-.21.5a.46.46,0,0,1-.64.25.47.47,0,0,1-.28-.63c.13-.33.27-.66.43-1a.45.45,0,0,1,.63-.24.46.46,0,0,1,.27.66c-.06.15-.13.3-.2.45Z"/><polygon class="cls-31" points="65.86 67.48 65.57 67.88 63.63 68.12 60.76 75.16 61.55 76.19 60.88 77.85 59.36 75.52 62.98 67.05 65.86 67.48"/><polygon class="cls-32" points="104.36 83.16 104.28 83.65 105.5 85.18 102.63 92.22 101.35 92.4 100.67 94.06 103.38 93.46 106.71 84.87 104.36 83.16"/><path class="cls-33" d="M57.26,13.7,28.84,43.22A2.31,2.31,0,1,1,25.51,40L53.93,10.49a2.31,2.31,0,1,1,3.33,3.21Z"/><path class="cls-34" d="M56.43,13.21,28,42.74a2.31,2.31,0,0,1-3.33-3.21L53.1,10a2.31,2.31,0,1,1,3.33,3.2Z"/><polygon class="cls-35" points="33.61 30.25 29.51 34.5 34.54 35.97 38.63 31.72 33.61 30.25"/><polygon class="cls-35" points="39.38 24.25 35.29 28.5 40.31 29.98 44.41 25.72 39.38 24.25"/><polygon class="cls-35" points="45.16 18.25 41.06 22.51 46.09 23.98 50.18 19.73 45.16 18.25"/><polygon class="cls-35" points="50.93 12.26 46.84 16.51 51.86 17.98 55.96 13.73 50.93 12.26"/><rect class="cls-36" x="30.75" y="35.93" width="44.82" height="33.16" rx="3.65" transform="translate(-16.56 25.64) rotate(-23.57)"/><rect class="cls-37" x="29.83" y="35.17" width="44.82" height="33.16" rx="3.65" transform="translate(-16.34 25.21) rotate(-23.57)"/><path d="M67.63,30l-41.27,18a1.41,1.41,0,0,1-1.85-.73l-.73-1.67a16.57,16.57,0,0,1,0-4.7c.44-3.9,9.69-1.05,9.69-1.05L65.78,25.79a1.41,1.41,0,0,1,1.85.73l.73,1.67A1.4,1.4,0,0,1,67.63,30Z"/><path class="cls-34" d="M67.13,29.58l-41.27,18A1.41,1.41,0,0,1,24,46.86l-.73-1.67a16.57,16.57,0,0,1,0-4.7c.44-3.9,9.69-1.06,9.69-1.06l32.33-14.1a1.41,1.41,0,0,1,1.86.73l.72,1.66A1.41,1.41,0,0,1,67.13,29.58Z"/><polygon class="cls-35" points="43.61 39.79 38.2 42.15 32.8 39.34 38.2 36.98 43.61 39.79"/><polygon class="cls-35" points="51.33 36.42 45.92 38.78 40.51 35.98 45.92 33.62 51.33 36.42"/><polygon class="cls-35" points="59.04 33.06 53.63 35.42 48.22 32.61 53.63 30.25 59.04 33.06"/><polygon class="cls-35" points="66.76 29.69 61.35 32.05 55.94 29.25 61.35 26.89 66.76 29.69"/><path class="cls-38" d="M26.78,40.23a.85.85,0,1,1-1.12-.44A.84.84,0,0,1,26.78,40.23Z"/><rect class="cls-39" x="25.16" y="40.48" width="1.69" height="0.23" transform="translate(-14.06 13.79) rotate(-23.57)"/><path class="cls-40" d="M27.43,44.48A.85.85,0,1,1,26.31,44,.86.86,0,0,1,27.43,44.48Z"/><rect class="cls-41" x="25.81" y="44.71" width="1.69" height="0.23" transform="translate(-21.84 64) rotate(-80.84)"/><path class="cls-42" d="M32.31,42.36a.85.85,0,1,1-1.12-.44A.85.85,0,0,1,32.31,42.36Z"/><rect class="cls-43" x="30.68" y="42.58" width="1.69" height="0.23" transform="matrix(0.73, 0.68, -0.68, 0.73, 37.4, -10.05)"/><rect class="cls-44" x="58.98" y="40.51" width="0.51" height="12.73" transform="translate(132.27 66.15) rotate(156.43)"/><rect class="cls-44" x="43.61" y="47.21" width="0.51" height="12.73" transform="translate(105.5 85.14) rotate(156.43)"/><rect class="cls-44" x="25.8" y="41.64" width="44.82" height="0.41" transform="translate(109.13 60.92) rotate(156.43)"/><rect class="cls-44" x="35.99" y="64.99" width="44.82" height="0.41" transform="translate(-21.2 28.79) rotate(-23.57)"/><rect class="cls-44" x="29.4" y="49.9" width="44.82" height="0.41" transform="translate(-15.71 24.9) rotate(-23.57)"/><rect class="cls-44" x="32.86" y="57.82" width="44.82" height="0.41" transform="translate(-18.59 26.94) rotate(-23.57)"/><rect class="cls-44" x="34.28" y="61.09" width="44.82" height="0.41" transform="translate(-19.78 27.78) rotate(-23.57)"/><rect class="cls-44" x="55.73" y="57.87" width="0.51" height="3.57" transform="translate(-19.19 27.36) rotate(-23.57)"/><rect class="cls-44" x="66.74" y="53.07" width="0.51" height="3.57" transform="translate(-16.34 31.36) rotate(-23.57)"/></g></g></svg>