<svg xmlns="http://www.w3.org/2000/svg" xmlns:xlink="http://www.w3.org/1999/xlink" viewBox="0 0 159 160"><defs><style>.a{fill:#303030;}.b{fill:url(#a);}.c{fill:#dc0142;}.d{fill:#01edff;}.e{fill:#e6e7e7;}</style><linearGradient id="a" x1="40.38" y1="84.28" x2="121.29" y2="74.43" gradientUnits="userSpaceOnUse"><stop offset="0" stop-color="#262727"/><stop offset="0.37" stop-color="#2f2f2f"/><stop offset="0.77" stop-color="#222"/></linearGradient></defs><title>tiktok</title><path class="a" d="M69.8,41.8H99.2a18.1,18.1,0,0,1,18.1,18.1V90.8a27.4,27.4,0,0,1-27.4,27.4H71.5A23.8,23.8,0,0,1,47.7,94.4V63.9A22.1,22.1,0,0,1,69.8,41.8Z"/><path class="b" d="M64.9,41.8H95.1A16.3,16.3,0,0,1,111.3,58V92.9A25.3,25.3,0,0,1,86,118.2H66.6a25,25,0,0,1-25-25V65A23.3,23.3,0,0,1,64.9,41.8Z"/><path class="c" d="M92,63.5a16.8,16.8,0,0,1-5-11H80v40a8.9,8.9,0,0,1-2.8,6.6,11.8,11.8,0,0,1-2.2,1.4,8.4,8.4,0,0,1-7,0c-3.4-1.8-4.3-6.1-4-9a11.1,11.1,0,0,1,8-9v-7a18.8,18.8,0,0,0-11,6c-5.5,6.4-6.6,17.8,0,24,4,3.8,10.9,5.9,17,3a14.5,14.5,0,0,0,7.3-8.1A7.7,7.7,0,0,0,86,97V71.5a15.8,15.8,0,0,0,8,4,18.1,18.1,0,0,0,4.6.1V67.3A15.6,15.6,0,0,1,92,63.5Z"/><path class="d" d="M96.4,65.4A16.1,16.1,0,0,1,89,61.5c-1.3-1.2-3.6-3.3-4.2-6.6v-.5a12.8,12.8,0,0,1-.1-1.9V50.7a.2.2,0,0,0-.2-.2H77.2a.2.2,0,0,0-.2.2V90.5a8.9,8.9,0,0,1-2.8,6.6A11.8,11.8,0,0,1,72,98.5a8.4,8.4,0,0,1-7,0c-3.2-1.7-4.5-5.8-4-9a10,10,0,0,1,8-8l.9-7.1a.9.9,0,0,0-.8-.8A18.9,18.9,0,0,0,58,79.5c-5.6,6.4-6.5,17.8,0,24,4,3.8,10.9,5.9,17,3a14.5,14.5,0,0,0,7.3-8.1A7.7,7.7,0,0,0,83,95V69.5a19.6,19.6,0,0,0,6,3,20.3,20.3,0,0,0,7.5,1Z"/><path class="e" d="M96.5,68a16.1,16.1,0,0,1-7-4,16.8,16.8,0,0,1-5-11h-7V93a8.9,8.9,0,0,1-2.8,6.6,11.8,11.8,0,0,1-2.2,1.4,8.4,8.4,0,0,1-7,0c-3.4-1.8-4.3-6.1-4-9a11.1,11.1,0,0,1,8-9V76a18.8,18.8,0,0,0-11,6c-5.5,6.4-6.6,17.8,0,24,4,3.8,10.9,5.9,17,3a14.5,14.5,0,0,0,7.3-8.1,7.7,7.7,0,0,0,.7-3.4V72a20.7,20.7,0,0,0,6,3,22.4,22.4,0,0,0,7,1Z"/></svg>